<svg version="1.1" xmlns="http://www.w3.org/2000/svg" viewBox="0 0 2043.9998779296875 665.9999694824221" width="2043.9998779296875" height="665.9999694824221">
  <!-- svg-source:excalidraw -->
  
  <defs>
    <style class="style-fonts">
      @font-face {
        font-family: "Virgil";
        src: url("https://excalidraw.com/Virgil.woff2");
      }
      @font-face {
        font-family: "Cascadia";
        src: url("https://excalidraw.com/Cascadia.woff2");
      }
      @font-face {
        font-family: "Assistant";
        src: url("https://excalidraw.com/Assistant-Regular.woff2");
      }
    </style>
    
  </defs>
  <rect x="0" y="0" width="2043.9998779296875" height="665.9999694824221" fill="#ffffff"></rect><g stroke-linecap="round" transform="translate(31.536879027391365 66.71502855603353) rotate(0 43.136790463102315 65.45768254075341)"><path d="M1.49 0.65 L86.89 0.86 L85.19 129.46 L0.51 130.96" stroke="none" stroke-width="0" fill="#e7f5ff"></path><path d="M0 0 C22.71 0.77, 43.92 -1.9, 86.27 0 M0 0 C17 0.41, 36.37 0.97, 86.27 0 M86.27 0 C86.19 44.75, 84.75 89.35, 86.27 130.92 M86.27 0 C86.08 34.54, 87.83 68.65, 86.27 130.92 M86.27 130.92 C57.75 129.93, 31.42 130.06, 0 130.92 M86.27 130.92 C56.89 130.75, 29.02 130.6, 0 130.92 M0 130.92 C-1.76 92.55, -2.67 58.71, 0 0 M0 130.92 C-0.96 88.31, 0.42 46.9, 0 0" stroke="#000000" stroke-width="2" fill="none"></path></g><g stroke-linecap="round" transform="translate(22.32412930288274 58.14597927438325) rotate(0 43.136790463102315 65.45768254075341)"><path d="M0.61 0.86 L85.19 -1.46 L86.78 130.96 L-1.04 130.44" stroke="none" stroke-width="0" fill="#e7f5ff"></path><path d="M0 0 C25.65 -2.27, 48.58 -0.6, 86.27 0 M0 0 C21.98 0.55, 42.53 -0.22, 86.27 0 M86.27 0 C85.31 40.34, 85.67 83.14, 86.27 130.92 M86.27 0 C86.12 44.99, 85.4 89.68, 86.27 130.92 M86.27 130.92 C65.78 130.34, 45.1 131.67, 0 130.92 M86.27 130.92 C59.32 130.13, 30.83 131.32, 0 130.92 M0 130.92 C-1.2 89.81, 1 46.14, 0 0 M0 130.92 C1.6 80.13, 1.65 28.8, 0 0" stroke="#000000" stroke-width="2" fill="none"></path></g><g stroke-linecap="round" transform="translate(10.856043952653863 48.070875305791446) rotate(0 43.136790463102315 65.45768254075341)"><path d="M-1.09 -1.46 L86.78 0.05 L85.24 130.44 L-1.21 132.34" stroke="none" stroke-width="0" fill="#e7f5ff"></path><path d="M0 0 C27.03 0.56, 56.73 -0.59, 86.27 0 M0 0 C25.7 -0.7, 50.65 -0.27, 86.27 0 M86.27 0 C84.73 38.27, 86.33 72.96, 86.27 130.92 M86.27 0 C87.7 45.34, 86.92 89.2, 86.27 130.92 M86.27 130.92 C63.22 131.73, 39.15 129.92, 0 130.92 M86.27 130.92 C63.17 131.2, 40.7 130.08, 0 130.92 M0 130.92 C1.59 102, 2.97 70.87, 0 0 M0 130.92 C-0.17 96.93, -0.61 62.72, 0 0" stroke="#000000" stroke-width="2" fill="none"></path></g><g stroke-linecap="round"><g transform="translate(25.487236798468416 107.57403254527213) rotate(0 28.428762993416584 -1.7914015036947717)"><path d="M-0.18 -0.67 C8.1 -0.47, 38.79 0.53, 48.48 0.1 C58.17 -0.32, 56.5 -2.49, 57.98 -3.2 M-1.73 1.59 C7.03 2.09, 40.82 2.73, 50.74 1.6 C60.66 0.46, 56.61 -4.44, 57.81 -5.23" stroke="#000000" stroke-width="1" fill="none"></path></g></g><mask></mask><g stroke-linecap="round"><g transform="translate(27.751844442389597 69.16603137159535) rotate(0 27.810859286345092 -1.710918247731641)"><path d="M-0.86 -0.09 C2.78 -0.45, 12.17 -2.73, 21.67 -2.84 C31.17 -2.95, 50.47 -1.17, 56.15 -0.74 M0.88 -1.18 C4.48 -1.84, 12.18 -4.92, 21.31 -4.66 C30.44 -4.4, 49.86 -0.54, 55.66 0.4" stroke="#000000" stroke-width="1" fill="none"></path></g></g><mask></mask><g stroke-linecap="round"><g transform="translate(27.658343490477705 151.43075635221362) rotate(0 29.501007661570014 0.21366510317727716)"><path d="M1.12 0.58 C6.73 0.49, 25.28 -1.05, 32.77 -0.65 C40.26 -0.25, 41.75 3.41, 46.09 3 C50.43 2.59, 56.74 -2.11, 58.82 -3.09 M0.25 -0.16 C5.82 -0.07, 24.57 -0.05, 32.1 0.71 C39.63 1.47, 40.93 4.92, 45.41 4.41 C49.89 3.9, 56.46 -1.16, 58.97 -2.35" stroke="#000000" stroke-width="1" fill="none"></path></g></g><mask></mask><g stroke-linecap="round"><g transform="translate(23.771746596453 165.154669093253) rotate(0 33.20583366993576 -1.0281086890770155)"><path d="M0.53 -0.34 C2.44 -0.64, 9.41 -1.02, 12.58 -1.25 C15.74 -1.48, 12.27 -1.98, 19.51 -1.72 C26.75 -1.47, 48.1 0.37, 56.01 0.27 C63.93 0.18, 65.42 -1.89, 66.99 -2.32 M-0.65 -1.56 C1.02 -1.7, 8.5 0.25, 11.72 0.38 C14.93 0.51, 11.26 -0.9, 18.65 -0.77 C26.03 -0.64, 48.16 1.28, 56.02 1.13 C63.88 0.98, 64.1 -0.97, 65.82 -1.67" stroke="#000000" stroke-width="1" fill="none"></path></g></g><mask></mask><g stroke-linecap="round"><g transform="translate(24.119439155662803 87.54970594733277) rotate(0 28.641654186609287 0.7892551552510554)"><path d="M0.17 0.17 C3.75 -0.01, 12.58 -1.69, 22.03 -1.42 C31.47 -1.14, 50.86 1.13, 56.83 1.83 M-1.21 -0.78 C2.16 -0.79, 11.48 -0.86, 20.99 -0.24 C30.49 0.37, 49.59 2.78, 55.83 2.9" stroke="#000000" stroke-width="1" fill="none"></path></g></g><mask></mask><g stroke-linecap="round"><g transform="translate(24.25064427464656 129.64167000607836) rotate(0 28.641654186609287 0.7892551552510554)"><path d="M-0.18 -0.69 C1.36 -0.51, 5.6 1.19, 9.43 1.27 C13.25 1.35, 14.97 -0.49, 22.78 -0.24 C30.59 0.02, 50.36 2.3, 56.29 2.81 M-1.73 1.56 C-0.4 1.89, 4.23 3.21, 8.24 2.56 C12.25 1.91, 14.36 -1.98, 22.32 -2.32 C30.28 -2.66, 50.15 -0.44, 56.02 0.52" stroke="#000000" stroke-width="1" fill="none"></path></g></g><mask></mask><g transform="translate(10 10) rotate(0 51.58995056152344 12.5)"><text x="0" y="0" font-family="Virgil, Segoe UI Emoji" font-size="20px" fill="#1e1e1e" text-anchor="start" style="white-space: pre;" direction="ltr" dominant-baseline="text-before-edge">Documents</text></g><g transform="translate(284.9675144107222 546.3386128744801) rotate(0 23 12.5)"><text x="0" y="0" font-family="Virgil, Segoe UI Emoji" font-size="20px" fill="#000000" text-anchor="start" style="white-space: pre;" direction="ltr" dominant-baseline="text-before-edge">User</text></g><g stroke-linecap="round"><g transform="translate(282.1802937622148 536.6856868645013) rotate(0 24.63471035906872 -21.936502105304612)" fill-rule="evenodd"><path d="M13.47 -38.64 C13.47 -38.64, 13.47 -38.64, 13.47 -38.64 M13.47 -38.64 C13.47 -38.64, 13.47 -38.64, 13.47 -38.64 M3.11 -14.53 C10.37 -22.89, 17.64 -31.24, 28.04 -43.2 M3.11 -14.53 C12.73 -25.6, 22.35 -36.67, 28.04 -43.2 M0.61 0.53 C10.07 -10.34, 19.52 -21.21, 35.39 -39.47 M0.61 0.53 C11.3 -11.76, 21.98 -24.05, 35.39 -39.47 M11.24 0.5 C22.39 -12.32, 33.54 -25.14, 40.77 -33.46 M11.24 0.5 C17.58 -6.78, 23.91 -14.07, 40.77 -33.46 M21.87 0.47 C30.65 -9.63, 39.42 -19.72, 44.84 -25.95 M21.87 0.47 C29.93 -8.81, 37.99 -18.08, 44.84 -25.95 M32.5 0.43 C36.72 -4.42, 40.93 -9.26, 48.91 -18.44 M32.5 0.43 C39.06 -7.11, 45.62 -14.65, 48.91 -18.44 M44.45 -1.11 C46.58 -3.57, 48.71 -6.02, 51.66 -9.41 M44.45 -1.11 C47.04 -4.09, 49.63 -7.07, 51.66 -9.41 M0 0 C0 0, 0 0, 0 0 M0 0 C0 0, 0 0, 0 0 M12.04 -0.13 C9.89 -2.01, 7.73 -3.88, 1.47 -9.32 M12.04 -0.13 C9.68 -2.19, 7.32 -4.24, 1.47 -9.32 M24.84 0.39 C16.1 -7.21, 7.36 -14.81, 2.95 -18.64 M24.84 0.39 C16.64 -6.73, 8.45 -13.86, 2.95 -18.64 M36.12 -0.4 C28.05 -7.42, 19.98 -14.44, 5.18 -27.3 M36.12 -0.4 C27.59 -7.81, 19.06 -15.23, 5.18 -27.3 M46.65 -1.84 C32.95 -13.76, 19.24 -25.68, 9.67 -33.99 M46.65 -1.84 C38.36 -9.06, 30.06 -16.27, 9.67 -33.99 M51.9 -7.88 C37.72 -20.21, 23.54 -32.54, 14.92 -40.03 M51.9 -7.88 C41.45 -16.97, 31 -26.05, 14.92 -40.03 M47.34 -22.45 C38.58 -30.06, 29.82 -37.68, 22.43 -44.1 M47.34 -22.45 C38.57 -30.08, 29.79 -37.7, 22.43 -44.1" stroke="#ced4da" stroke-width="1" fill="none"></path><path d="M0 0 C0.92 -4.85, 1.58 -21.76, 5.52 -29.07 C9.46 -36.38, 17.61 -43.34, 23.65 -43.87 C29.69 -44.4, 37.51 -39.05, 41.78 -32.24 C46.05 -25.43, 56.23 -8.39, 49.27 -3.02 C42.31 2.36, 8.21 -0.5, 0 0 M0 0 C0.92 -4.85, 1.58 -21.76, 5.52 -29.07 C9.46 -36.38, 17.61 -43.34, 23.65 -43.87 C29.69 -44.4, 37.51 -39.05, 41.78 -32.24 C46.05 -25.43, 56.23 -8.39, 49.27 -3.02 C42.31 2.36, 8.21 -0.5, 0 0" stroke="#000000" stroke-width="2" fill="none"></path></g></g><mask></mask><g stroke-linecap="round" transform="translate(294.63416459853045 469.9946390786449) rotate(0 12.612971703843215 11.036350240862816)"><path d="M2.98 3.91 C2.98 3.91, 2.98 3.91, 2.98 3.91 M2.98 3.91 C2.98 3.91, 2.98 3.91, 2.98 3.91 M2.45 16.71 C5.77 12.89, 9.09 9.08, 16.23 0.86 M2.45 16.71 C7.54 10.86, 12.62 5.02, 16.23 0.86 M8.49 21.96 C12.3 17.58, 16.1 13.2, 22.92 5.35 M8.49 21.96 C13.99 15.63, 19.48 9.31, 22.92 5.35 M4.36 19.37 C4.36 19.37, 4.36 19.37, 4.36 19.37 M4.36 19.37 C4.36 19.37, 4.36 19.37, 4.36 19.37 M17.91 20.55 C14.54 17.62, 11.17 14.69, 1.31 6.11 M17.91 20.55 C12.65 15.97, 7.38 11.39, 1.31 6.11 M23.92 15.17 C19.3 11.15, 14.68 7.14, 7.31 0.73 M23.92 15.17 C18.46 10.42, 13 5.67, 7.31 0.73" stroke="#ced4da" stroke-width="1" fill="none"></path><path d="M25.23 11.04 C25.23 11.68, 25.16 12.32, 25.03 12.95 C24.91 13.58, 24.71 14.21, 24.47 14.81 C24.22 15.41, 23.9 16, 23.54 16.55 C23.17 17.11, 22.74 17.64, 22.28 18.13 C21.81 18.62, 21.28 19.08, 20.72 19.49 C20.16 19.9, 19.55 20.27, 18.92 20.59 C18.29 20.91, 17.61 21.19, 16.93 21.41 C16.24 21.63, 15.52 21.79, 14.8 21.91 C14.08 22.02, 13.34 22.07, 12.61 22.07 C11.88 22.07, 11.14 22.02, 10.42 21.91 C9.7 21.79, 8.99 21.63, 8.3 21.41 C7.61 21.19, 6.94 20.91, 6.31 20.59 C5.67 20.27, 5.06 19.9, 4.51 19.49 C3.95 19.08, 3.42 18.62, 2.95 18.13 C2.48 17.64, 2.05 17.11, 1.69 16.55 C1.32 16, 1.01 15.41, 0.76 14.81 C0.51 14.21, 0.32 13.58, 0.19 12.95 C0.06 12.32, 0 11.68, 0 11.04 C0 10.4, 0.06 9.75, 0.19 9.12 C0.32 8.49, 0.51 7.86, 0.76 7.26 C1.01 6.66, 1.32 6.07, 1.69 5.52 C2.05 4.96, 2.48 4.43, 2.95 3.94 C3.42 3.45, 3.95 2.99, 4.51 2.58 C5.06 2.17, 5.67 1.8, 6.31 1.48 C6.94 1.16, 7.61 0.88, 8.3 0.67 C8.99 0.45, 9.7 0.28, 10.42 0.17 C11.14 0.06, 11.88 0, 12.61 0 C13.34 0, 14.08 0.06, 14.8 0.17 C15.52 0.28, 16.24 0.45, 16.93 0.67 C17.61 0.88, 18.29 1.16, 18.92 1.48 C19.55 1.8, 20.16 2.17, 20.72 2.58 C21.28 2.99, 21.81 3.45, 22.28 3.94 C22.74 4.43, 23.17 4.96, 23.54 5.52 C23.9 6.07, 24.22 6.66, 24.47 7.26 C24.71 7.86, 24.91 8.49, 25.03 9.12 C25.16 9.75, 25.19 10.72, 25.23 11.04 C25.26 11.36, 25.26 10.72, 25.23 11.04" stroke="#000000" stroke-width="2" fill="none"></path></g><g stroke-linecap="round" transform="translate(493.5689392089844 480.789794921875) rotate(0 62.43096923828125 34.210235595703125)"><path d="M17.11 0 C44.31 0.85, 80.03 -3.44, 107.76 0 C117.77 0.12, 122.96 3.2, 124.86 17.11 C126.35 24.85, 128.2 38.77, 124.86 51.32 C124.06 61.53, 117.22 65.98, 107.76 68.42 C79.04 67.4, 48.47 66.53, 17.11 68.42 C4.7 69.1, -2.05 59.92, 0 51.32 C-1.48 43.84, -0.63 29.79, 0 17.11 C3.1 6.81, 2.68 -2.6, 17.11 0" stroke="none" stroke-width="0" fill="#e7f5ff"></path><path d="M17.11 0 C43.35 -0.35, 65.87 -0.82, 107.76 0 M17.11 0 C39.54 -0.13, 61.42 -0.1, 107.76 0 M107.76 0 C117.47 -0.23, 124.99 4.52, 124.86 17.11 M107.76 0 C119.33 2.04, 125.59 4.62, 124.86 17.11 M124.86 17.11 C127.02 25.26, 125.63 32.87, 124.86 51.32 M124.86 17.11 C125.07 24.59, 124.73 32.13, 124.86 51.32 M124.86 51.32 C123.79 60.99, 121.01 70.23, 107.76 68.42 M124.86 51.32 C123.45 62.72, 117.73 66.97, 107.76 68.42 M107.76 68.42 C77.3 69.55, 47.89 69.56, 17.11 68.42 M107.76 68.42 C73.32 69.07, 39.93 69.11, 17.11 68.42 M17.11 68.42 C6.71 69, 0.64 63.56, 0 51.32 M17.11 68.42 C6.89 68.79, 0.56 64.88, 0 51.32 M0 51.32 C-0.85 42.14, -1.84 36.43, 0 17.11 M0 51.32 C0.59 39.78, -0.75 28.24, 0 17.11 M0 17.11 C1.64 6.91, 4.97 1.02, 17.11 0 M0 17.11 C-1.36 4.5, 3.81 0.39, 17.11 0" stroke="#000000" stroke-width="1" fill="none"></path></g><g transform="translate(528.8099365234375 502.5000305175781) rotate(0 27.189971923828125 12.5)"><text x="27.189971923828125" y="0" font-family="Virgil, Segoe UI Emoji" font-size="20px" fill="#1e1e1e" text-anchor="middle" style="white-space: pre;" direction="ltr" dominant-baseline="text-before-edge">Query</text></g><g transform="translate(775.9998779296875 14.333251953125) rotate(0 51.21995544433594 12.5)"><text x="0" y="0" font-family="Virgil, Segoe UI Emoji" font-size="20px" fill="#1e1e1e" text-anchor="start" style="white-space: pre;" direction="ltr" dominant-baseline="text-before-edge">Vector DB</text></g><g stroke-linecap="round"><g transform="translate(789.8215642103733 61.90478224131442) rotate(0 44.060593016404425 47.85201411482009)" fill-rule="evenodd"><path d="M-0.72 -1.43 C-0.22 12.7, 1.05 68.92, 0.85 84.97 C0.65 101.03, -2.2 92.66, -1.94 94.89 C-1.68 97.12, -0.99 96.8, 2.39 98.37 C5.78 99.95, 10.88 103.55, 18.38 104.34 C25.87 105.13, 37.98 103.49, 47.35 103.11 C56.73 102.72, 68.47 102.77, 74.62 102.03 C80.77 101.29, 82.46 99.75, 84.27 98.67 C86.08 97.58, 84.79 97.4, 85.5 95.5 C86.21 93.61, 88.12 101.66, 88.54 87.28 C88.96 72.91, 88.22 23.64, 88.02 9.26 C87.82 -5.12, 88.4 2.91, 87.34 1 C86.29 -0.9, 84.77 -0.47, 81.67 -2.18 C78.56 -3.89, 75.04 -8.2, 68.72 -9.25 C62.4 -10.29, 51.97 -8.48, 43.75 -8.45 C35.52 -8.42, 25.7 -10.18, 19.35 -9.08 C13 -7.99, 9.06 -3.42, 5.65 -1.91 C2.24 -0.4, -0.14 -0.67, -1.13 -0.02 C-2.12 0.63, -0.43 2.3, -0.3 2.01" stroke="none" stroke-width="0" fill="#228be6" fill-rule="evenodd"></path><path d="M-0.76 0.1 C-0.74 14.38, -1.1 70, -0.91 85.95 C-0.71 101.9, -0.47 93.28, 0.4 95.8 C1.27 98.32, 0.81 99.61, 4.32 101.08 C7.83 102.54, 14.16 104.19, 21.45 104.62 C28.74 105.04, 39.69 103.71, 48.05 103.61 C56.42 103.5, 65.5 104.62, 71.65 104 C77.81 103.37, 82.42 101.2, 84.97 99.86 C87.52 98.53, 86.6 98.21, 86.95 95.98 C87.31 93.76, 86.95 101.43, 87.1 86.51 C87.26 71.59, 87.62 21.04, 87.87 6.47 C88.13 -8.1, 89.54 0.86, 88.63 -0.93 C87.71 -2.72, 85.41 -3.45, 82.38 -4.28 C79.34 -5.11, 77.17 -4.92, 70.44 -5.92 C63.71 -6.91, 50.45 -9.81, 42 -10.23 C33.56 -10.64, 26.33 -9.5, 19.76 -8.43 C13.19 -7.36, 5.93 -5.13, 2.58 -3.81 C-0.78 -2.49, 0.23 -1.01, -0.38 -0.51 C-0.99 -0.02, -1 -0.92, -1.1 -0.86 M1.04 -0.89 C1.49 13.56, 1.38 71.11, 1.17 87.44 C0.97 103.77, -0.71 95.16, -0.16 97.09 C0.38 99.02, 1 98.25, 4.45 99.04 C7.91 99.83, 13.59 100.75, 20.57 101.85 C27.56 102.94, 37.82 105.39, 46.37 105.61 C54.92 105.83, 65.09 104.09, 71.87 103.18 C78.66 102.26, 84.3 101.47, 87.06 100.11 C89.82 98.75, 88.4 97.45, 88.44 95.04 C88.48 92.63, 87.36 100.32, 87.31 85.66 C87.26 71, 88.06 21.61, 88.15 7.06 C88.23 -7.49, 88.69 0.35, 87.82 -1.66 C86.94 -3.66, 85.86 -4.3, 82.9 -4.95 C79.93 -5.59, 76.85 -5.07, 70.02 -5.53 C63.2 -5.99, 50.27 -7.4, 41.96 -7.73 C33.66 -8.05, 26.45 -8.25, 20.18 -7.48 C13.92 -6.72, 8.03 -4.32, 4.36 -3.13 C0.68 -1.95, -1.21 -0.73, -1.84 -0.39 C-2.47 -0.04, 0.45 -1.4, 0.59 -1.05" stroke="#0a11d3" stroke-width="1" fill="none"></path></g></g><mask></mask><g stroke-linecap="round"><g transform="translate(790.5089257998707 127.19491027210199) rotate(0 44.15404313987261 4.448651936218312)"><path d="M-1.2 -0.1 C-0.62 0.53, 0.49 2.48, 2.71 3.86 C4.94 5.23, 8.12 7.13, 12.14 8.17 C16.16 9.22, 20.92 10.12, 26.84 10.12 C32.77 10.12, 40.47 8.35, 47.7 8.17 C54.93 8, 64.14 9.68, 70.23 9.08 C76.33 8.49, 81.41 6.06, 84.27 4.61 C87.12 3.16, 86.86 1.35, 87.36 0.38 M0.37 -1.2 C0.89 -0.38, 0.15 4.11, 1.97 5.37 C3.78 6.62, 7.58 5.9, 11.26 6.35 C14.93 6.8, 18.1 7.8, 24.02 8.06 C29.95 8.33, 38.92 7.86, 46.79 7.95 C54.66 8.03, 64.96 9.25, 71.22 8.57 C77.49 7.88, 81.33 5.2, 84.37 3.85 C87.42 2.51, 88.78 1.01, 89.49 0.48" stroke="#0a11d3" stroke-width="1" fill="none"></path></g></g><mask></mask><g stroke-linecap="round"><g transform="translate(789.4151842878092 94.12075571003021) rotate(0 44.15404313987261 4.448651936218312)"><path d="M0.39 -0.05 C0.94 0.78, -0.08 3.53, 2.1 4.9 C4.29 6.26, 9.38 7.62, 13.49 8.13 C17.6 8.65, 21.39 7.62, 26.78 7.99 C32.17 8.36, 38.62 10.14, 45.82 10.35 C53.03 10.55, 63.59 10.21, 70.01 9.21 C76.43 8.2, 81.47 6.06, 84.34 4.32 C87.21 2.59, 86.6 -0.28, 87.24 -1.2 M-0.87 -1.12 C-0.39 -0.6, -1.32 2.06, 1.04 3.3 C3.41 4.53, 9.5 5.43, 13.32 6.29 C17.13 7.15, 18.22 8.26, 23.93 8.48 C29.64 8.7, 39.76 7.55, 47.59 7.6 C55.42 7.65, 64.74 9.45, 70.89 8.76 C77.03 8.06, 81.41 5.2, 84.49 3.41 C87.56 1.63, 88.98 -1.49, 89.32 -1.94" stroke="#0a11d3" stroke-width="1" fill="none"></path></g></g><mask></mask><g stroke-linecap="round" transform="translate(788.2943616016476 53.88008601421774) rotate(0 43.825373054270926 8.863351988406833)"><path d="M43.69 -0.24 C52.48 -0.34, 63.84 1.02, 71.06 2.2 C78.28 3.39, 85.2 4.98, 87 6.88 C88.8 8.77, 86.38 11.89, 81.84 13.57 C77.3 15.24, 68.5 16.33, 59.77 16.93 C51.03 17.53, 38.29 17.77, 29.43 17.17 C20.57 16.57, 11.47 14.92, 6.6 13.32 C1.73 11.73, -1.18 9.49, 0.19 7.6 C1.57 5.7, 7.24 3.18, 14.85 1.94 C22.46 0.69, 40.34 0.41, 45.86 0.1 C51.37 -0.21, 47.96 -0.01, 47.93 0.06 M51.71 -0.44 C60.36 -0.22, 71.32 1.15, 77.39 2.61 C83.46 4.06, 88.15 6.24, 88.13 8.3 C88.11 10.37, 83.47 13.31, 77.27 14.98 C71.06 16.65, 60.19 18.06, 50.91 18.3 C41.63 18.54, 29.8 17.54, 21.59 16.44 C13.38 15.34, 4.69 13.57, 1.63 11.67 C-1.43 9.78, -0.33 6.86, 3.21 5.05 C6.75 3.23, 14.62 1.64, 22.86 0.77 C31.1 -0.1, 47.82 -0.03, 52.63 -0.16 C57.45 -0.28, 52.02 -0.07, 51.72 0.02" stroke="none" stroke-width="0" fill="#fff"></path><path d="M53.57 -0.09 C62.38 0.08, 73.73 1.65, 79.47 3.16 C85.22 4.68, 88.62 7.12, 88.04 9.01 C87.45 10.9, 82.55 13.08, 75.96 14.52 C69.37 15.96, 57.91 17.27, 48.47 17.63 C39.03 18, 27.14 17.73, 19.32 16.73 C11.5 15.73, 4.15 13.47, 1.56 11.61 C-1.03 9.75, -0.1 7.39, 3.76 5.56 C7.62 3.73, 16.06 1.58, 24.73 0.64 C33.41 -0.31, 50.28 -0.04, 55.82 -0.12 C61.36 -0.19, 58.1 -0.02, 57.97 0.18 M39.02 -0.04 C47.85 -0.22, 60.19 0.61, 67.99 1.63 C75.8 2.65, 83.19 4.3, 85.84 6.06 C88.48 7.82, 87.83 10.46, 83.87 12.21 C79.92 13.96, 70.71 15.78, 62.09 16.57 C53.48 17.36, 41.28 17.31, 32.19 16.92 C23.1 16.53, 12.87 15.76, 7.55 14.22 C2.23 12.67, -0.7 9.63, 0.25 7.65 C1.2 5.68, 6.76 3.63, 13.23 2.35 C19.71 1.08, 34.81 0.36, 39.1 0.02 C43.39 -0.32, 38.8 0.17, 38.97 0.33" stroke="#0a11d3" stroke-width="1" fill="none"></path></g><g stroke-linecap="round" transform="translate(859.804093902228 78.45588889135126) rotate(0 6.423028523489904 6.970952181208048)"><path d="M5.87 0.21 C7.11 0.09, 9.5 0.27, 10.6 1.24 C11.7 2.21, 12.18 4.55, 12.48 6.04 C12.78 7.52, 13.02 8.91, 12.4 10.14 C11.77 11.37, 10 12.87, 8.72 13.42 C7.44 13.98, 6.09 13.93, 4.73 13.48 C3.37 13.02, 1.37 12, 0.54 10.7 C-0.29 9.39, -0.55 7.13, -0.25 5.65 C0.05 4.16, 1.23 2.76, 2.33 1.79 C3.44 0.82, 5.59 0.17, 6.39 -0.15 C7.18 -0.48, 7 -0.39, 7.1 -0.17 M4.54 -0.57 C5.99 -0.96, 8.58 -0.78, 9.98 0.1 C11.37 0.97, 12.39 3.06, 12.88 4.69 C13.37 6.32, 13.35 8.49, 12.91 9.86 C12.48 11.23, 11.62 12.25, 10.27 12.91 C8.91 13.57, 6.18 14.15, 4.77 13.82 C3.37 13.5, 2.62 12.15, 1.85 10.98 C1.08 9.82, 0.16 8.27, 0.13 6.83 C0.1 5.38, 0.91 3.47, 1.67 2.31 C2.43 1.14, 4.2 0.27, 4.68 -0.18 C5.15 -0.63, 4.45 -0.57, 4.53 -0.38" stroke="none" stroke-width="0" fill="#fff"></path><path d="M8.26 -0.25 C9.71 -0.04, 11.19 1.17, 12.01 2.36 C12.83 3.55, 13.38 5.31, 13.19 6.87 C12.99 8.42, 11.87 10.42, 10.82 11.67 C9.78 12.92, 8.27 14.13, 6.92 14.36 C5.56 14.6, 3.79 13.91, 2.7 13.06 C1.62 12.21, 0.7 10.78, 0.41 9.26 C0.12 7.75, 0.53 5.47, 0.96 3.98 C1.39 2.48, 1.82 0.98, 3.01 0.29 C4.2 -0.4, 7.14 -0.22, 8.09 -0.18 C9.04 -0.15, 8.73 0.37, 8.71 0.49 M4.62 0.18 C5.96 -0.22, 8.06 -0.19, 9.39 0.48 C10.73 1.16, 12.21 2.81, 12.62 4.23 C13.03 5.66, 12.47 7.66, 11.87 9.04 C11.26 10.41, 10.19 11.64, 9 12.47 C7.81 13.31, 5.96 14.3, 4.74 14.05 C3.51 13.8, 2.31 12.18, 1.63 10.96 C0.95 9.73, 0.77 8.11, 0.66 6.7 C0.55 5.29, 0.31 3.57, 0.96 2.49 C1.61 1.41, 3.8 0.59, 4.55 0.22 C5.29 -0.15, 5.27 0.05, 5.42 0.25" stroke="#0a11d3" stroke-width="1" fill="none"></path></g><g stroke-linecap="round" transform="translate(859.804093902228 109.05834275041173) rotate(0 6.423028523489904 6.970952181208048)"><path d="M5.78 -0.27 C7.1 -0.5, 8.49 0.68, 9.68 1.52 C10.87 2.35, 12.49 3.37, 12.93 4.73 C13.37 6.08, 12.87 8.25, 12.34 9.65 C11.8 11.04, 11.03 12.4, 9.74 13.11 C8.45 13.82, 6.06 14.27, 4.59 13.91 C3.13 13.54, 1.7 12.14, 0.96 10.93 C0.21 9.73, 0.04 8.16, 0.12 6.68 C0.21 5.2, 0.47 3.22, 1.48 2.05 C2.48 0.88, 5.29 -0.08, 6.18 -0.33 C7.07 -0.58, 6.89 0.45, 6.8 0.55 M5.62 -0.61 C7.06 -0.82, 8.76 0.17, 9.96 1.11 C11.15 2.06, 12.28 3.74, 12.79 5.08 C13.3 6.42, 13.62 7.87, 13.01 9.17 C12.39 10.46, 10.3 12.18, 9.09 12.87 C7.88 13.55, 6.95 13.52, 5.73 13.26 C4.5 12.99, 2.66 12.35, 1.75 11.28 C0.84 10.21, 0.42 8.34, 0.28 6.84 C0.14 5.35, 0.22 3.55, 0.92 2.32 C1.62 1.1, 3.8 -0.19, 4.49 -0.52 C5.18 -0.84, 4.83 0.14, 5.04 0.39" stroke="none" stroke-width="0" fill="#fff"></path><path d="M5.82 -0.3 C7.08 -0.63, 8.96 -0.3, 10.02 0.52 C11.08 1.33, 11.81 3.04, 12.16 4.6 C12.51 6.16, 12.6 8.43, 12.13 9.88 C11.66 11.32, 10.48 12.57, 9.35 13.26 C8.23 13.96, 6.62 14.41, 5.38 14.06 C4.15 13.7, 2.91 12.39, 1.93 11.12 C0.96 9.85, -0.37 7.97, -0.48 6.44 C-0.59 4.91, 0.31 3.04, 1.29 1.95 C2.27 0.87, 4.73 0.31, 5.41 -0.06 C6.1 -0.43, 5.44 -0.33, 5.41 -0.26 M6.04 -0.43 C7.48 -0.63, 9.58 0.23, 10.6 1.19 C11.61 2.14, 11.98 3.86, 12.12 5.29 C12.25 6.72, 12.06 8.38, 11.41 9.78 C10.75 11.17, 9.33 13.12, 8.18 13.67 C7.03 14.21, 5.59 13.63, 4.5 13.07 C3.4 12.51, 2.43 11.5, 1.61 10.31 C0.78 9.12, -0.43 7.32, -0.46 5.91 C-0.49 4.5, 0.3 2.84, 1.43 1.86 C2.57 0.87, 5.56 0.19, 6.37 0.01 C7.18 -0.17, 6.3 0.58, 6.28 0.77" stroke="#0a11d3" stroke-width="1" fill="none"></path></g><g stroke-linecap="round" transform="translate(859.804093902228 142.31914392490836) rotate(0 6.423028523489904 6.970952181208048)"><path d="M6.85 0.42 C8.2 0.5, 10.41 0.91, 11.41 1.91 C12.41 2.91, 12.73 4.92, 12.84 6.43 C12.94 7.94, 12.9 9.75, 12.03 10.99 C11.15 12.24, 9.06 13.55, 7.6 13.88 C6.14 14.22, 4.43 13.68, 3.27 13.01 C2.12 12.35, 1.22 11.24, 0.67 9.89 C0.12 8.54, -0.4 6.39, -0.01 4.89 C0.38 3.38, 1.71 1.59, 2.98 0.85 C4.26 0.11, 6.96 0.64, 7.61 0.46 C8.27 0.29, 7.07 -0.2, 6.92 -0.22 M5.4 0.47 C6.64 0.29, 8.45 0.79, 9.69 1.41 C10.92 2.03, 12.44 2.94, 12.8 4.19 C13.17 5.44, 12.31 7.58, 11.88 8.91 C11.45 10.24, 11.22 11.4, 10.21 12.18 C9.2 12.95, 7.19 13.69, 5.82 13.57 C4.46 13.45, 3.09 12.53, 2.04 11.45 C0.99 10.36, -0.22 8.62, -0.46 7.08 C-0.69 5.53, -0.26 3.3, 0.62 2.17 C1.5 1.04, 4.01 0.58, 4.81 0.3 C5.61 0.02, 5.34 0.42, 5.43 0.49" stroke="none" stroke-width="0" fill="#fff"></path><path d="M5.41 -0.29 C6.54 -0.61, 7.99 -0.08, 9.1 0.77 C10.21 1.62, 11.52 3.38, 12.06 4.81 C12.59 6.24, 12.64 7.95, 12.3 9.33 C11.95 10.71, 11.02 12.39, 9.97 13.1 C8.92 13.81, 7.48 13.9, 6.01 13.58 C4.55 13.26, 2.23 12.31, 1.19 11.17 C0.15 10.03, -0.25 8.18, -0.24 6.74 C-0.22 5.31, 0.4 3.75, 1.29 2.56 C2.19 1.38, 4.47 0.11, 5.13 -0.36 C5.79 -0.82, 5.2 -0.33, 5.25 -0.21 M6.74 -0.33 C7.99 -0.36, 9.17 0.49, 10.07 1.44 C10.96 2.4, 11.91 3.84, 12.11 5.4 C12.32 6.96, 11.9 9.53, 11.31 10.8 C10.73 12.08, 9.69 12.67, 8.59 13.06 C7.5 13.46, 6.14 13.63, 4.75 13.17 C3.36 12.7, 1.15 11.53, 0.26 10.29 C-0.63 9.05, -0.99 7.17, -0.61 5.71 C-0.23 4.25, 1.32 2.38, 2.52 1.53 C3.73 0.69, 5.92 0.79, 6.59 0.63 C7.26 0.46, 6.54 0.42, 6.53 0.55" stroke="#0a11d3" stroke-width="1" fill="none"></path></g><g stroke-linecap="round" transform="translate(1041.9024963378906 76.12310791015625) rotate(0 117.09774780273438 6.5435028076171875)"><path d="M3.27 0 C71.79 0.37, 139.23 -0.9, 230.92 0 M3.27 0 C91.71 0.8, 180.1 1.16, 230.92 0 M230.92 0 C233.21 -0.57, 234.15 0.2, 234.2 3.27 M230.92 0 C232.53 0.23, 234.81 0.77, 234.2 3.27 M234.2 3.27 C233.92 4.67, 234.28 6.2, 234.2 9.82 M234.2 3.27 C234.29 5, 234.23 7.01, 234.2 9.82 M234.2 9.82 C234.4 11.99, 233.44 13.28, 230.92 13.09 M234.2 9.82 C234.54 12.51, 233.41 13.7, 230.92 13.09 M230.92 13.09 C154.99 12.71, 80.19 13.11, 3.27 13.09 M230.92 13.09 C155.8 13.3, 80.33 13.02, 3.27 13.09 M3.27 13.09 C0.32 14.01, 0.87 12.84, 0 9.82 M3.27 13.09 C2.17 12.39, -0.89 11.8, 0 9.82 M0 9.82 C0.3 8.3, -0.1 7.19, 0 3.27 M0 9.82 C0.01 7.69, 0.09 5.79, 0 3.27 M0 3.27 C0.21 1.6, 1.5 -0.33, 3.27 0 M0 3.27 C-0.21 1.3, 0.11 -0.52, 3.27 0" stroke="#000000" stroke-width="1" fill="none"></path></g><g stroke-linecap="round" transform="translate(1440.6666259765625 376.33595068359386) rotate(0 127.72534191894533 139.83200939941412)"><path d="M0 0 C92.16 0.68, 185.33 2.39, 255.45 0 M0 0 C92.63 -1.18, 186.68 -2.43, 255.45 0 M255.45 0 C253.08 97.19, 253.68 195.2, 255.45 279.66 M255.45 0 C256.11 105.89, 256.31 213.26, 255.45 279.66 M255.45 279.66 C195.06 278.76, 130.98 278.28, 0 279.66 M255.45 279.66 C165.38 279.95, 76.13 281.03, 0 279.66 M0 279.66 C-2.42 213.55, -1.17 148.29, 0 0 M0 279.66 C0.38 178.99, 0.79 79.38, 0 0" stroke="#000000" stroke-width="1" fill="none"></path></g><g stroke-linecap="round" transform="translate(1440.6666259765625 353.3332824707031) rotate(0 40.86000274658204 9.685333984375006)"><path d="M0.83 0.32 L81.19 0.71 L80.83 18.89 L0.89 19.68" stroke="none" stroke-width="0" fill="white"></path><path d="M0 0 C19.91 0.86, 39.89 0.02, 81.72 0 M0 0 C31.43 -0.71, 62.96 -0.48, 81.72 0 M81.72 0 C81.07 7.87, 82.41 15.46, 81.72 19.37 M81.72 0 C81.86 7.1, 81.44 14.53, 81.72 19.37 M81.72 19.37 C56.77 18.33, 33.62 19.95, 0 19.37 M81.72 19.37 C52.81 19.17, 23.98 19.34, 0 19.37 M0 19.37 C0.3 14.73, 0.61 8.44, 0 0 M0 19.37 C0.08 11.97, -0.43 5.31, 0 0" stroke="#000000" stroke-width="1" fill="none"></path></g><g transform="translate(1446.1146263427734 355.7546159667969) rotate(0 32.26618194580078 7.5666671752929915)"><text x="0" y="0" font-family="Virgil, Segoe UI Emoji" font-size="12.106667480468749px" fill="#000000" text-anchor="start" style="white-space: pre;" direction="ltr" dominant-baseline="text-before-edge">Prompt模板</text></g><g stroke-linecap="round"><g transform="translate(563.3333740234375 553.9999694824219) rotate(0 433.6667175292969 28.29838731241864)"><path d="M0 0 C0 -0.17, 0 -0.35, 0 -0.67 M0 0 C0 -0.18, 0 -0.35, 0 -0.67 M0 -0.67 C0 13.74, 0 28.15, 0 46.67 M0 -0.67 C0 17.87, 0 36.4, 0 46.67 M0 46.67 C341.4 50.84, 682.81 55.01, 867.33 57.26 M0 46.67 C240.28 49.6, 480.56 52.54, 867.33 57.26" stroke="#000000" stroke-width="2" fill="none"></path></g><g transform="translate(563.3333740234375 553.9999694824219) rotate(0 433.6667175292969 28.29838731241864)"><path d="M839.02 67.18 C846.36 64.61, 853.71 62.03, 867.33 57.26 M839.02 67.18 C846.52 64.55, 854.03 61.92, 867.33 57.26" stroke="#000000" stroke-width="2" fill="none"></path></g><g transform="translate(563.3333740234375 553.9999694824219) rotate(0 433.6667175292969 28.29838731241864)"><path d="M839.27 46.66 C846.55 49.41, 853.83 52.16, 867.33 57.26 M839.27 46.66 C846.71 49.47, 854.15 52.28, 867.33 57.26" stroke="#000000" stroke-width="2" fill="none"></path></g></g><mask></mask><g transform="translate(1462.0001220703125 389.1665344238281) rotate(0 80 20)"><text x="0" y="0" font-family="Virgil, Segoe UI Emoji" font-size="16px" fill="#1e1e1e" text-anchor="start" style="white-space: pre;" direction="ltr" dominant-baseline="text-before-edge">你的任务是根据给定的</text><text x="0" y="20" font-family="Virgil, Segoe UI Emoji" font-size="16px" fill="#1e1e1e" text-anchor="start" style="white-space: pre;" direction="ltr" dominant-baseline="text-before-edge">知识回答问题</text></g><g transform="translate(1466.0001220703125 445.9999694824219) rotate(0 83.26417541503906 30)"><text x="0" y="0" font-family="Virgil, Segoe UI Emoji" font-size="16px" fill="#1e1e1e" text-anchor="start" style="white-space: pre;" direction="ltr" dominant-baseline="text-before-edge">知识：</text><text x="0" y="20" font-family="Virgil, Segoe UI Emoji" font-size="16px" fill="#1e1e1e" text-anchor="start" style="white-space: pre;" direction="ltr" dominant-baseline="text-before-edge">Topk relevant chunks</text><text x="0" y="40" font-family="Virgil, Segoe UI Emoji" font-size="16px" fill="#1e1e1e" text-anchor="start" style="white-space: pre;" direction="ltr" dominant-baseline="text-before-edge"></text></g><g transform="translate(1468.6666259765625 553.9999084472656) rotate(0 32 30)"><text x="0" y="0" font-family="Virgil, Segoe UI Emoji" font-size="16px" fill="#1e1e1e" text-anchor="start" style="white-space: pre;" direction="ltr" dominant-baseline="text-before-edge">用户问：</text><text x="0" y="20" font-family="Virgil, Segoe UI Emoji" font-size="16px" fill="#1e1e1e" text-anchor="start" style="white-space: pre;" direction="ltr" dominant-baseline="text-before-edge">Query</text><text x="0" y="40" font-family="Virgil, Segoe UI Emoji" font-size="16px" fill="#1e1e1e" text-anchor="start" style="white-space: pre;" direction="ltr" dominant-baseline="text-before-edge"></text></g><g stroke-linecap="round" transform="translate(1837.333251953125 463.4999694824219) rotate(0 87 74.5)"><path d="M120.73 4.67 C131.59 7.24, 141.5 15.85, 149.64 23.35 C157.77 30.85, 165.66 40.1, 169.52 49.65 C173.38 59.21, 173.81 70.79, 172.79 80.67 C171.78 90.55, 168.83 100.03, 163.43 108.95 C158.04 117.87, 149.55 127.87, 140.43 134.18 C131.31 140.49, 120.17 144.6, 108.71 146.84 C97.25 149.07, 83.55 149.32, 71.69 147.61 C59.83 145.91, 47.27 142.2, 37.57 136.61 C27.86 131.02, 19.44 122.71, 13.47 114.09 C7.5 105.47, 3.25 94.81, 1.73 84.88 C0.21 74.94, 1.31 64.13, 4.34 54.46 C7.37 44.79, 12.48 34.52, 19.91 26.85 C27.33 19.17, 38.31 12.92, 48.9 8.42 C59.49 3.92, 70.31 -0.35, 83.46 -0.16 C96.61 0.03, 119.33 7.04, 127.79 9.57 C136.25 12.1, 134.92 14.15, 134.19 15 M105.62 2.47 C116.87 3.47, 129.62 9, 139.06 15.21 C148.51 21.41, 156.38 30.72, 162.28 39.73 C168.18 48.73, 173.38 59.34, 174.47 69.24 C175.55 79.13, 172.56 89.54, 168.78 99.09 C165.01 108.64, 159.86 118.97, 151.84 126.54 C143.82 134.12, 131.92 140.57, 120.66 144.55 C109.4 148.53, 96.23 150.8, 84.27 150.42 C72.31 150.04, 59.43 146.67, 48.91 142.27 C38.39 137.87, 28.47 131.88, 21.12 124.01 C13.77 116.14, 8.08 104.61, 4.81 95.05 C1.54 85.48, 0.48 76.48, 1.51 66.61 C2.54 56.73, 4.85 44.63, 10.97 35.78 C17.09 26.92, 28.21 19.2, 38.21 13.48 C48.21 7.76, 59.74 3.29, 70.97 1.45 C82.21 -0.39, 99.61 2, 105.62 2.45 C111.63 2.89, 107.43 2.87, 107.05 4.11" stroke="none" stroke-width="0" fill="#a5d8ff"></path><path d="M82.03 1.09 C93.35 -0.55, 107.44 1.8, 118.69 5.45 C129.94 9.09, 141.3 15.82, 149.53 22.96 C157.77 30.1, 163.86 38.98, 168.08 48.26 C172.3 57.55, 175.33 68.76, 174.85 78.66 C174.36 88.55, 170.88 98.65, 165.18 107.62 C159.48 116.59, 149.85 126.07, 140.67 132.48 C131.5 138.89, 121.22 143.46, 110.13 146.07 C99.04 148.69, 85.94 149.73, 74.14 148.17 C62.34 146.61, 49.27 142.31, 39.35 136.7 C29.43 131.08, 20.97 122.98, 14.64 114.49 C8.31 105.99, 3.17 95.8, 1.37 85.73 C-0.42 75.65, 0.72 63.6, 3.87 54.03 C7.02 44.46, 12.94 35.89, 20.28 28.33 C27.61 20.78, 36.84 13.4, 47.89 8.72 C58.94 4.03, 79.55 1.35, 86.57 0.24 C93.59 -0.87, 89.99 0.77, 89.99 2.06 M80.72 -0.06 C91.89 -2.25, 106.08 -0.65, 116.93 2.86 C127.78 6.36, 137.26 13.55, 145.8 20.95 C154.35 28.35, 163.75 38.01, 168.2 47.26 C172.65 56.51, 172.81 66.41, 172.5 76.43 C172.18 86.44, 170.92 98.26, 166.31 107.35 C161.7 116.44, 153.77 124.69, 144.83 130.97 C135.89 137.24, 124.25 142.23, 112.67 145.01 C101.09 147.79, 87.05 149.02, 75.34 147.65 C63.64 146.28, 52.39 141.72, 42.45 136.78 C32.51 131.84, 22.6 126.1, 15.69 117.99 C8.79 109.87, 3.14 98.19, 1.01 88.09 C-1.13 77.99, -0.13 67.13, 2.89 57.39 C5.91 47.66, 12.12 37.72, 19.13 29.69 C26.14 21.67, 34.7 14.4, 44.95 9.24 C55.19 4.09, 74.82 0.12, 80.58 -1.23 C86.35 -2.58, 79.41 -0.09, 79.55 1.15" stroke="#000000" stroke-width="1" fill="none"></path></g><g transform="translate(1904.6749702296415 525.3205142840241) rotate(0 19.639991760253906 12.5)"><text x="19.639991760253906" y="0" font-family="Virgil, Segoe UI Emoji" font-size="20px" fill="#1e1e1e" text-anchor="middle" style="white-space: pre;" direction="ltr" dominant-baseline="text-before-edge">LLM</text></g><g stroke-opacity="0.8" fill-opacity="0.8" stroke-linecap="round" transform="translate(288.66668701171875 72.16665649414062) rotate(0 49.4666748046875 61.833343505859375)"><path d="M-1.93 0.85 L97.67 0.71 L99.92 125.08 L-0.99 124.05" stroke="none" stroke-width="0" fill="white"></path><path d="M0 0 C31.87 0.77, 62.89 1.02, 98.93 0 M0 0 C19.97 -0.39, 39.12 0.16, 98.93 0 M98.93 0 C98.1 34.85, 99.55 74.31, 98.93 123.67 M98.93 0 C99.5 35.46, 99.38 70.75, 98.93 123.67 M98.93 123.67 C72.78 126.05, 47.08 124.62, 0 123.67 M98.93 123.67 C68.78 122.6, 38.02 122.4, 0 123.67 M0 123.67 C0.1 90.56, 1.16 61.27, 0 0 M0 123.67 C-0.05 96.78, -0.32 69.5, 0 0" stroke="#000000" stroke-width="1" fill="none"></path></g><g stroke-linecap="round" transform="translate(300.38247841282896 79.97718409488073) rotate(0 36.44912880345396 10.41403680098685)"><path d="M-1.26 0.71 L73.88 1.41 L71.91 21.22 L-0.68 22.38" stroke="none" stroke-width="0" fill="white"></path><path d="M0 0 C18.48 0.52, 36.83 -0.9, 72.9 0 M0 0 C17.65 0.31, 36.57 0.07, 72.9 0 M72.9 0 C74.2 9.32, 72.54 14.98, 72.9 20.83 M72.9 0 C73.35 5.31, 72.52 9.7, 72.9 20.83 M72.9 20.83 C43.86 21.67, 18.65 20.47, 0 20.83 M72.9 20.83 C54.75 19.87, 38.03 20.98, 0 20.83 M0 20.83 C1.68 17.2, -1.64 10.3, 0 0 M0 20.83 C-0.63 14.22, -0.87 6.74, 0 0" stroke="#000000" stroke-width="1" fill="none"></path></g><g stroke-linecap="round" transform="translate(300.38247841282896 134.65087730006167) rotate(0 36.44912880345396 10.41403680098685)"><path d="M0.98 1.41 L71.91 0.39 L72.22 22.38 L-0.77 21.61" stroke="none" stroke-width="0" fill="white"></path><path d="M0 0 C21.48 -0.99, 45.94 -0.09, 72.9 0 M0 0 C15.45 -0.33, 31.61 0.17, 72.9 0 M72.9 0 C72.69 4.98, 71.31 10.64, 72.9 20.83 M72.9 0 C72.5 8.11, 73.7 14.06, 72.9 20.83 M72.9 20.83 C45.03 19.95, 15.76 20.6, 0 20.83 M72.9 20.83 C53.81 20.84, 34.94 20.7, 0 20.83 M0 20.83 C-1.75 15.23, 0.79 10.02, 0 0 M0 20.83 C-0.82 13.91, -0.48 6.51, 0 0" stroke="#000000" stroke-width="1" fill="none"></path></g><g stroke-linecap="round" transform="translate(300.38247841282896 108.61578529759458) rotate(0 36.44912880345396 10.41403680098685)"><path d="M-0.99 0.39 L72.22 1.56 L72.13 21.61 L1.33 20.19" stroke="none" stroke-width="0" fill="white"></path><path d="M0 0 C23.38 0.43, 46.97 -1.07, 72.9 0 M0 0 C20.06 0.34, 38.31 1.07, 72.9 0 M72.9 0 C71.14 9.18, 73.89 17.15, 72.9 20.83 M72.9 0 C73.52 7.45, 73.63 15.13, 72.9 20.83 M72.9 20.83 C48.88 20.16, 26.54 18.62, 0 20.83 M72.9 20.83 C55.06 21.52, 37.85 22.05, 0 20.83 M0 20.83 C1.13 12.3, 1.21 4.16, 0 0 M0 20.83 C-0.43 13.58, 0.69 6.31, 0 0" stroke="#000000" stroke-width="1" fill="none"></path></g><g stroke-linecap="round" transform="translate(300.38247841282896 163.28947850277552) rotate(0 36.44912880345396 10.41403680098685)"><path d="M-0.68 1.56 L72.13 0.78 L74.22 20.19 L0.01 22.41" stroke="none" stroke-width="0" fill="white"></path><path d="M0 0 C17.43 -1.4, 37.68 -0.2, 72.9 0 M0 0 C17.08 0.71, 36.47 -0.13, 72.9 0 M72.9 0 C73.75 7.1, 74.43 11.85, 72.9 20.83 M72.9 0 C73.88 6.95, 73.17 15.82, 72.9 20.83 M72.9 20.83 C53.68 18.86, 34.94 19.87, 0 20.83 M72.9 20.83 C46.94 21.95, 22.89 20.29, 0 20.83 M0 20.83 C0.95 13.81, 1.21 7.75, 0 0 M0 20.83 C0.62 14.4, -0.36 6.76, 0 0" stroke="#000000" stroke-width="1" fill="none"></path></g><g transform="translate(180.3333740234375 111) rotate(0 21.47997283935547 12.5)"><text x="0" y="0" font-family="Virgil, Segoe UI Emoji" font-size="20px" fill="#1e1e1e" text-anchor="start" style="white-space: pre;" direction="ltr" dominant-baseline="text-before-edge">Split</text></g><g stroke-linecap="round" transform="translate(489.6666259765625 275.8332824707031) rotate(0 77.33331298828125 39.16668701171875)"><path d="M19.58 0 C40.6 -4.23, 69.16 1.31, 135.08 0 M19.58 0 C56.17 3.22, 93.74 2.18, 135.08 0 M135.08 0 C150.16 1.8, 150.75 3.76, 154.67 19.58 M135.08 0 C151.49 0.36, 152.41 3.56, 154.67 19.58 M154.67 19.58 C151.03 25.41, 153.51 41.89, 154.67 58.75 M154.67 19.58 C152.69 31.75, 153.84 39.3, 154.67 58.75 M154.67 58.75 C153.56 73.78, 147.4 76.14, 135.08 78.33 M154.67 58.75 C154.79 67.44, 148.07 73.83, 135.08 78.33 M135.08 78.33 C106.78 81.1, 71.32 81.03, 19.58 78.33 M135.08 78.33 C92.83 76.32, 51.06 78.26, 19.58 78.33 M19.58 78.33 C4.02 79.18, 1.36 73.22, 0 58.75 M19.58 78.33 C3.17 81.01, 1.3 67.22, 0 58.75 M0 58.75 C-1.2 47.71, 2.47 36.3, 0 19.58 M0 58.75 C1.82 49.89, -1.33 39.54, 0 19.58 M0 19.58 C-0.91 10.17, 7.4 -0.4, 19.58 0 M0 19.58 C-1.68 10.54, 3.7 -1.95, 19.58 0" stroke="#000000" stroke-width="2" fill="none"></path></g><g transform="translate(507.33331298828125 272.9999694824219) rotate(0 57.652244567871094 36)"><text x="0" y="0" font-family="Virgil, Segoe UI Emoji" font-size="28px" fill="#000000" text-anchor="start" style="white-space: pre;" direction="ltr" dominant-baseline="text-before-edge">Embeding</text><text x="0" y="36" font-family="Virgil, Segoe UI Emoji" font-size="28px" fill="#000000" text-anchor="start" style="white-space: pre;" direction="ltr" dominant-baseline="text-before-edge">model</text></g><g mask="url(#mask-nUcQYEYrj5ZdiaopvLbP1)" stroke-linecap="round"><g transform="translate(328.9999694824219 201.66665649414062) rotate(0 76 54)"><path d="M0 0 C0 6.36, 0 12.72, 0 27.33 M0 27.33 C0 56.15, 0 84.97, 0 107.33 M0 107.33 C60.16 107.6, 120.31 107.86, 152 108" stroke="#000000" stroke-width="2.5" fill="none" stroke-dasharray="8 10"></path></g><g transform="translate(328.9999694824219 201.66665649414062) rotate(0 76 54)"><path d="M123.76 118.14 C130.33 115.78, 136.9 113.42, 152 108" stroke="#000000" stroke-width="2.5" fill="none"></path></g><g transform="translate(328.9999694824219 201.66665649414062) rotate(0 76 54)"><path d="M123.85 97.62 C130.4 100.03, 136.95 102.45, 152 108" stroke="#000000" stroke-width="2.5" fill="none"></path></g></g><mask id="mask-nUcQYEYrj5ZdiaopvLbP1"><rect x="0" y="0" fill="#fff" width="580.9999694824219" height="409.6666564941406"></rect><rect x="287.82003021240234" y="256.5" fill="#000" width="82.35990905761719" height="25" opacity="1"></rect></mask><g transform="translate(287.82003021240234 256.5) rotate(0 117.17993927001953 -0.833343505859375)"><text x="41.179954528808594" y="0" font-family="Virgil, Segoe UI Emoji" font-size="20px" fill="#1e1e1e" text-anchor="middle" style="white-space: pre;" direction="ltr" dominant-baseline="text-before-edge">Embeding</text></g><g mask="url(#mask-zejAJ2gJBPk3XJ5Gw9Pzt)" stroke-linecap="round"><g transform="translate(558.9999389648438 474.9999084472656) rotate(0 1.000030517578125 -56.666656494140625)"><path d="M0 0 C0.33 -18.89, 1.67 -94.44, 2 -113.33 M0 0 C0.33 -18.89, 1.67 -94.44, 2 -113.33" stroke="#3bc9db" stroke-width="2" fill="none"></path></g><g transform="translate(558.9999389648438 474.9999084472656) rotate(0 1.000030517578125 -56.666656494140625)"><path d="M11.76 -84.97 C9.46 -91.67, 7.15 -98.37, 2 -113.33 M11.76 -84.97 C9.68 -91.01, 7.6 -97.06, 2 -113.33" stroke="#3bc9db" stroke-width="2" fill="none"></path></g><g transform="translate(558.9999389648438 474.9999084472656) rotate(0 1.000030517578125 -56.666656494140625)"><path d="M-8.76 -85.33 C-6.21 -91.95, -3.67 -98.56, 2 -113.33 M-8.76 -85.33 C-6.46 -91.3, -4.17 -97.27, 2 -113.33" stroke="#3bc9db" stroke-width="2" fill="none"></path></g></g><mask id="mask-zejAJ2gJBPk3XJ5Gw9Pzt"><rect x="0" y="0" fill="#fff" width="661" height="688.3332214355469"></rect><rect x="518.8200149536133" y="405.833251953125" fill="#000" width="82.35990905761719" height="25" opacity="1"></rect></mask><g transform="translate(518.8200149536133 405.833251953125) rotate(0 41.179954528808594 12.5)"><text x="41.179954528808594" y="0" font-family="Virgil, Segoe UI Emoji" font-size="20px" fill="#3bc9db" text-anchor="middle" style="white-space: pre;" direction="ltr" dominant-baseline="text-before-edge">Embeding</text></g><g stroke-linecap="round"><g transform="translate(563 266.6665954589844) rotate(0 111 -78)"><path d="M0 0 C0.4 -46.27, 0.8 -92.54, 1.33 -154.67 M1.33 -154.67 C24.32 -154.97, 47.31 -155.28, 102 -156 M102 -156 C126.8 -156, 151.6 -156, 222 -156" stroke="#000000" stroke-width="2.5" fill="none" stroke-dasharray="8 10"></path></g><g transform="translate(563 266.6665954589844) rotate(0 111 -78)"><path d="M193.81 -145.74 C202.24 -148.81, 210.68 -151.88, 222 -156" stroke="#000000" stroke-width="2.5" fill="none"></path></g><g transform="translate(563 266.6665954589844) rotate(0 111 -78)"><path d="M193.81 -166.26 C202.24 -163.19, 210.68 -160.12, 222 -156" stroke="#000000" stroke-width="2.5" fill="none"></path></g></g><mask></mask><g transform="translate(577.6666870117188 75.99993896484375) rotate(0 95.08990478515625 12.5)"><text x="0" y="0" font-family="Virgil, Segoe UI Emoji" font-size="20px" fill="#1e1e1e" text-anchor="start" style="white-space: pre;" direction="ltr" dominant-baseline="text-before-edge">Vector Store Index</text></g><g stroke-linecap="round" transform="translate(1042.2356262207031 98.45646667480469) rotate(0 117.09774780273438 6.5435028076171875)"><path d="M3.27 0 C86.17 -0.77, 168.31 0.43, 230.92 0 M3.27 0 C85.6 0.3, 167.29 0.41, 230.92 0 M230.92 0 C234.03 0.48, 233.81 1.37, 234.2 3.27 M230.92 0 C232.74 -0.67, 234.58 0.03, 234.2 3.27 M234.2 3.27 C234.41 4.47, 234.39 6.44, 234.2 9.82 M234.2 3.27 C234.05 4.91, 234.13 6.62, 234.2 9.82 M234.2 9.82 C234.65 11.41, 232.96 12.3, 230.92 13.09 M234.2 9.82 C233.82 11.56, 232.63 13.29, 230.92 13.09 M230.92 13.09 C163.08 13.97, 94.26 14.72, 3.27 13.09 M230.92 13.09 C171.49 13.5, 112.89 13.49, 3.27 13.09 M3.27 13.09 C1.36 13.11, 0.05 11.42, 0 9.82 M3.27 13.09 C1.6 12.11, 0.42 12.41, 0 9.82 M0 9.82 C-0.16 7.94, -0.31 6.18, 0 3.27 M0 9.82 C-0.1 8.07, 0.07 6.03, 0 3.27 M0 3.27 C0.47 0.54, 1.44 -0.13, 3.27 0 M0 3.27 C0.52 1.7, 0.74 -0.58, 3.27 0" stroke="#000000" stroke-width="1" fill="none"></path></g><g stroke-linecap="round" transform="translate(1044.2356262207031 145.1230926513672) rotate(0 117.09774780273438 6.5435028076171875)"><path d="M3.27 0 C61.08 -0.32, 117.4 -0.19, 230.92 0 M3.27 0 C60.41 0.44, 116.6 0.35, 230.92 0 M230.92 0 C232.79 -0.58, 234.53 0.17, 234.2 3.27 M230.92 0 C232.2 0.65, 233.31 1.78, 234.2 3.27 M234.2 3.27 C234.1 4.44, 234.32 5.97, 234.2 9.82 M234.2 3.27 C234.26 4.75, 234.16 6.28, 234.2 9.82 M234.2 9.82 C233.87 11.62, 232.69 13.26, 230.92 13.09 M234.2 9.82 C234.2 12.38, 234.03 13.87, 230.92 13.09 M230.92 13.09 C159.82 14.28, 89.71 13.4, 3.27 13.09 M230.92 13.09 C158.85 13.24, 86.56 12.99, 3.27 13.09 M3.27 13.09 C1.53 12.23, 0.37 12.36, 0 9.82 M3.27 13.09 C0.78 12.98, 0.17 11.44, 0 9.82 M0 9.82 C-0.03 7.92, -0.06 6.04, 0 3.27 M0 9.82 C0.06 7.39, 0.05 5.13, 0 3.27 M0 3.27 C0.45 1.62, 0.78 -0.5, 3.27 0 M0 3.27 C0.24 1.36, 1.22 0.98, 3.27 0" stroke="#000000" stroke-width="1" fill="none"></path></g><g stroke-linecap="round" transform="translate(1042.2356262207031 120.78977966308594) rotate(0 117.09774780273438 6.5435028076171875)"><path d="M3.27 0 C86.63 -0.67, 170.64 -0.02, 230.92 0 M3.27 0 C82.27 -0.51, 161.68 -0.66, 230.92 0 M230.92 0 C232.32 0.57, 233.42 1.69, 234.2 3.27 M230.92 0 C232.22 0.62, 235.15 0.68, 234.2 3.27 M234.2 3.27 C234.01 4.57, 233.98 6.16, 234.2 9.82 M234.2 3.27 C234.14 4.79, 234.12 6.46, 234.2 9.82 M234.2 9.82 C234.2 12.33, 233.91 13.77, 230.92 13.09 M234.2 9.82 C234.32 12.25, 234.24 12.62, 230.92 13.09 M230.92 13.09 C156.6 12.69, 82.12 12.58, 3.27 13.09 M230.92 13.09 C162.29 12.17, 93.44 12.69, 3.27 13.09 M3.27 13.09 C0.82 13, 0.14 11.51, 0 9.82 M3.27 13.09 C0.77 12, -0.24 11.78, 0 9.82 M0 9.82 C0.19 8.2, -0.2 6.49, 0 3.27 M0 9.82 C0.06 8.3, -0.06 6.52, 0 3.27 M0 3.27 C0.21 1.33, 1.21 0.86, 3.27 0 M0 3.27 C0.3 0.37, 2.21 1.08, 3.27 0" stroke="#000000" stroke-width="1" fill="none"></path></g><g stroke-linecap="round"><g transform="translate(886.333251953125 108.99993896484375) rotate(0 75 0)"><path d="M0 0 C25 0, 125 0, 150 0 M0 0 C25 0, 125 0, 150 0" stroke="#000000" stroke-width="2" fill="none"></path></g><g transform="translate(886.333251953125 108.99993896484375) rotate(0 75 0)"><path d="M121.81 10.26 C127.89 8.05, 133.97 5.84, 150 0 M121.81 10.26 C129.37 7.51, 136.92 4.76, 150 0" stroke="#000000" stroke-width="2" fill="none"></path></g><g transform="translate(886.333251953125 108.99993896484375) rotate(0 75 0)"><path d="M121.81 -10.26 C127.89 -8.05, 133.97 -5.84, 150 0 M121.81 -10.26 C129.37 -7.51, 136.92 -4.76, 150 0" stroke="#000000" stroke-width="2" fill="none"></path></g></g><mask></mask><g transform="translate(1068.6666259765625 33.333282470703125) rotate(0 108.8798828125 12.5)"><text x="0" y="0" font-family="Virgil, Segoe UI Emoji" font-size="20px" fill="#e03131" text-anchor="start" style="white-space: pre;" direction="ltr" dominant-baseline="text-before-edge">Top n relevant chunks</text></g><g mask="url(#mask-vQ1SdH7Ll4fvV2gSNFeq5)" stroke-linecap="round"><g transform="translate(649 321.9999084472656) rotate(0 90.00003051757812 -75.6666259765625)"><path d="M0 0 C17.39 -0.18, 34.78 -0.35, 65.33 -0.67 M0 0 C14.78 -0.15, 29.56 -0.3, 65.33 -0.67 M65.33 -0.67 C88.34 -0.4, 111.34 -0.13, 180 0.67 M65.33 -0.67 C90.68 -0.37, 116.03 -0.08, 180 0.67 M180 0.67 C180 -54.38, 180 -109.42, 180 -152 M180 0.67 C180 -57.46, 180 -115.59, 180 -152" stroke="#3bc9db" stroke-width="2" fill="none"></path></g><g transform="translate(649 321.9999084472656) rotate(0 90.00003051757812 -75.6666259765625)"><path d="M190.26 -123.81 C187.53 -131.31, 184.8 -138.82, 180 -152 M190.26 -123.81 C187.94 -130.19, 185.62 -136.57, 180 -152" stroke="#3bc9db" stroke-width="2" fill="none"></path></g><g transform="translate(649 321.9999084472656) rotate(0 90.00003051757812 -75.6666259765625)"><path d="M169.74 -123.81 C172.47 -131.31, 175.2 -138.82, 180 -152 M169.74 -123.81 C172.06 -130.19, 174.38 -136.57, 180 -152" stroke="#3bc9db" stroke-width="2" fill="none"></path></g></g><mask id="mask-vQ1SdH7Ll4fvV2gSNFeq5"><rect x="0" y="0" fill="#fff" width="929.0000610351562" height="574.6665344238281"></rect><rect x="739.1867523193359" y="309.4999084472656" fill="#000" width="64.95993041992188" height="25" opacity="1"></rect></mask><g transform="translate(739.1867523193359 309.4999084472656) rotate(0 -0.1867218017578125 -63.1666259765625)"><text x="32.47996520996094" y="0" font-family="Virgil, Segoe UI Emoji" font-size="20px" fill="#3bc9db" text-anchor="middle" style="white-space: pre;" direction="ltr" dominant-baseline="text-before-edge">Search</text></g><g stroke-linecap="round"><g transform="translate(334.33331298828125 514.3332824707031) rotate(0 75 0)"><path d="M0 0 C25 0, 125 0, 150 0 M0 0 C25 0, 125 0, 150 0" stroke="#3bc9db" stroke-width="2" fill="none"></path></g><g transform="translate(334.33331298828125 514.3332824707031) rotate(0 75 0)"><path d="M121.81 10.26 C129.41 7.49, 137.01 4.73, 150 0 M121.81 10.26 C130.43 7.12, 139.04 3.99, 150 0" stroke="#3bc9db" stroke-width="2" fill="none"></path></g><g transform="translate(334.33331298828125 514.3332824707031) rotate(0 75 0)"><path d="M121.81 -10.26 C129.41 -7.49, 137.01 -4.73, 150 0 M121.81 -10.26 C130.43 -7.12, 139.04 -3.99, 150 0" stroke="#3bc9db" stroke-width="2" fill="none"></path></g></g><mask></mask><g transform="translate(810.6666870117188 564.3332824707031) rotate(0 47.189971923828125 12.5)"><text x="0" y="0" font-family="Virgil, Segoe UI Emoji" font-size="20px" fill="#1e1e1e" text-anchor="start" style="white-space: pre;" direction="ltr" dominant-baseline="text-before-edge">原始Query</text></g><g transform="translate(568.3333129882812 233.33328247070312) rotate(0 45.33995056152344 12.5)"><text x="0" y="0" font-family="Virgil, Segoe UI Emoji" font-size="20px" fill="#1e1e1e" text-anchor="start" style="white-space: pre;" direction="ltr" dominant-baseline="text-before-edge">embedings</text></g><g stroke-linecap="round"><g transform="translate(1698.333251953125 536.9999694824219) rotate(0 68.33331298828125 0.33331298828125)"><path d="M0 0 C22.78 0.11, 113.89 0.56, 136.67 0.67 M0 0 C22.78 0.11, 113.89 0.56, 136.67 0.67" stroke="#000000" stroke-width="2" fill="none"></path></g><g transform="translate(1698.333251953125 536.9999694824219) rotate(0 68.33331298828125 0.33331298828125)"><path d="M108.43 10.79 C119.31 6.89, 130.19 2.99, 136.67 0.67 M108.43 10.79 C119.33 6.88, 130.23 2.98, 136.67 0.67" stroke="#000000" stroke-width="2" fill="none"></path></g><g transform="translate(1698.333251953125 536.9999694824219) rotate(0 68.33331298828125 0.33331298828125)"><path d="M108.53 -9.73 C119.37 -5.73, 130.21 -1.72, 136.67 0.67 M108.53 -9.73 C119.39 -5.72, 130.25 -1.7, 136.67 0.67" stroke="#000000" stroke-width="2" fill="none"></path></g></g><mask></mask><g stroke-linecap="round"><g transform="translate(126.33334350585938 142.33328247070312) rotate(0 75 0)"><path d="M0 0 C25 0, 125 0, 150 0" stroke="#000000" stroke-width="2.5" fill="none" stroke-dasharray="8 10"></path></g><g transform="translate(126.33334350585938 142.33328247070312) rotate(0 75 0)"><path d="M121.81 10.26 C132.93 6.21, 144.05 2.17, 150 0" stroke="#000000" stroke-width="2.5" fill="none"></path></g><g transform="translate(126.33334350585938 142.33328247070312) rotate(0 75 0)"><path d="M121.81 -10.26 C132.93 -6.21, 144.05 -2.17, 150 0" stroke="#000000" stroke-width="2.5" fill="none"></path></g></g><mask></mask><g stroke-linecap="round"><g transform="translate(1931 460.9999694824219) rotate(0 0.33331298828125 -57.666656494140625)"><path d="M0 0 C0.11 -19.22, 0.56 -96.11, 0.67 -115.33 M0 0 C0.11 -19.22, 0.56 -96.11, 0.67 -115.33" stroke="#000000" stroke-width="2" fill="none"></path></g><g transform="translate(1931 460.9999694824219) rotate(0 0.33331298828125 -57.666656494140625)"><path d="M10.76 -87.08 C8.48 -93.47, 6.2 -99.86, 0.67 -115.33 M10.76 -87.08 C7.06 -97.45, 3.36 -107.81, 0.67 -115.33" stroke="#000000" stroke-width="2" fill="none"></path></g><g transform="translate(1931 460.9999694824219) rotate(0 0.33331298828125 -57.666656494140625)"><path d="M-9.76 -87.2 C-7.4 -93.56, -5.04 -99.92, 0.67 -115.33 M-9.76 -87.2 C-5.93 -97.52, -2.11 -107.84, 0.67 -115.33" stroke="#000000" stroke-width="2" fill="none"></path></g></g><mask></mask><g stroke-linecap="round" transform="translate(1833.9998779296875 241.33328247070312) rotate(0 100 50)"><path d="M25 0 C83.73 0, 142.47 0, 175 0 C191.67 0, 200 8.33, 200 25 C200 40.59, 200 56.18, 200 75 C200 91.67, 191.67 100, 175 100 C121.76 100, 68.52 100, 25 100 C8.33 100, 0 91.67, 0 75 C0 55.98, 0 36.96, 0 25 C0 8.33, 8.33 0, 25 0" stroke="none" stroke-width="0" fill="#b2f2bb"></path><path d="M25 0 C83.55 0, 142.1 0, 175 0 M25 0 C62.48 0, 99.97 0, 175 0 M175 0 C191.67 0, 200 8.33, 200 25 M175 0 C191.67 0, 200 8.33, 200 25 M200 25 C200 36.62, 200 48.24, 200 75 M200 25 C200 39.08, 200 53.17, 200 75 M200 75 C200 91.67, 191.67 100, 175 100 M200 75 C200 91.67, 191.67 100, 175 100 M175 100 C115.94 100, 56.88 100, 25 100 M175 100 C121 100, 66.99 100, 25 100 M25 100 C8.33 100, 0 91.67, 0 75 M25 100 C8.33 100, 0 91.67, 0 75 M0 75 C0 58.28, 0 41.56, 0 25 M0 75 C0 55.14, 0 35.28, 0 25 M0 25 C0 8.33, 8.33 0, 25 0 M0 25 C0 8.33, 8.33 0, 25 0" stroke="#000000" stroke-width="2" fill="none"></path></g><g transform="translate(1895.5598831176758 281.3332824707031) rotate(0 32.629966735839844 12.5)"><text x="32.629966735839844" y="0" font-family="Virgil, Segoe UI Emoji" font-size="20px" fill="#000000" text-anchor="middle" style="white-space: pre;" direction="ltr" dominant-baseline="text-before-edge">answer</text></g><g stroke-linecap="round" transform="translate(1074.9999389648438 238.91656494140625) rotate(0 92 39.16668701171875)"><path d="M19.58 0 C72.01 -2.49, 129.75 4.06, 164.42 0 M19.58 0 C57.85 -1.01, 99.11 -0.04, 164.42 0 M164.42 0 C178.7 -0.19, 187.91 7.83, 184 19.58 M164.42 0 C180.59 1.33, 186.33 9.85, 184 19.58 M184 19.58 C186.9 37.23, 184.27 48.71, 184 58.75 M184 19.58 C186.01 30.97, 184.27 40.84, 184 58.75 M184 58.75 C181.43 69.43, 176.84 81.59, 164.42 78.33 M184 58.75 C187.18 74.73, 176.31 77.79, 164.42 78.33 M164.42 78.33 C114.9 75.35, 63.92 79.81, 19.58 78.33 M164.42 78.33 C124.63 76.45, 85.64 75.45, 19.58 78.33 M19.58 78.33 C9.71 82.21, -0.55 73.92, 0 58.75 M19.58 78.33 C9.01 73.91, 0.78 75.9, 0 58.75 M0 58.75 C0.26 49.84, -1.83 33.14, 0 19.58 M0 58.75 C1.45 51.66, -0.07 41.14, 0 19.58 M0 19.58 C0.38 3.71, 9.78 -1.21, 19.58 0 M0 19.58 C2.58 2.13, 10.73 1.67, 19.58 0" stroke="#000000" stroke-width="2" fill="none"></path></g><g transform="translate(1092.6666259765625 236.083251953125) rotate(0 68.76829528808594 36)"><text x="0" y="0" font-family="Virgil, Segoe UI Emoji" font-size="28px" fill="#000000" text-anchor="start" style="white-space: pre;" direction="ltr" dominant-baseline="text-before-edge">Re-Ranker</text><text x="0" y="36" font-family="Virgil, Segoe UI Emoji" font-size="28px" fill="#000000" text-anchor="start" style="white-space: pre;" direction="ltr" dominant-baseline="text-before-edge">model</text></g><g stroke-linecap="round"><g transform="translate(622.33349609375 517.3333435058594) rotate(0 225.66665649414062 -119.00003051757812)"><path d="M0 0 C84.44 -0.81, 168.89 -1.63, 276.67 -2.67 M0 0 C94.95 -0.92, 189.89 -1.83, 276.67 -2.67 M276.67 -2.67 C277.32 -79.76, 277.98 -156.86, 278.67 -238 M276.67 -2.67 C277.44 -93.66, 278.21 -184.66, 278.67 -238 M278.67 -238 C317.28 -237.7, 355.9 -237.4, 451.33 -236.67 M278.67 -238 C344.75 -237.49, 410.83 -236.98, 451.33 -236.67" stroke="#c2255c" stroke-width="2" fill="none"></path></g><g transform="translate(622.33349609375 517.3333435058594) rotate(0 225.66665649414062 -119.00003051757812)"><path d="M423.06 -226.62 C431.69 -229.69, 440.32 -232.75, 451.33 -236.67 M423.06 -226.62 C432.77 -230.07, 442.47 -233.52, 451.33 -236.67" stroke="#c2255c" stroke-width="2" fill="none"></path></g><g transform="translate(622.33349609375 517.3333435058594) rotate(0 225.66665649414062 -119.00003051757812)"><path d="M423.22 -247.14 C431.8 -243.95, 440.38 -240.75, 451.33 -236.67 M423.22 -247.14 C432.87 -243.55, 442.52 -239.95, 451.33 -236.67" stroke="#c2255c" stroke-width="2" fill="none"></path></g></g><mask></mask><g stroke-linecap="round"><g transform="translate(1160.9998779296875 167.00003051757812) rotate(0 0.66668701171875 33.999969482421875)"><path d="M0 0 C0.22 11.33, 1.11 56.67, 1.33 68 M0 0 C0.22 11.33, 1.11 56.67, 1.33 68" stroke="#000000" stroke-width="2" fill="none"></path></g><g transform="translate(1160.9998779296875 167.00003051757812) rotate(0 0.66668701171875 33.999969482421875)"><path d="M-9.48 40.02 C-6.73 47.13, -3.98 54.24, 1.33 68 M-9.48 40.02 C-7.07 46.25, -4.66 52.48, 1.33 68" stroke="#000000" stroke-width="2" fill="none"></path></g><g transform="translate(1160.9998779296875 167.00003051757812) rotate(0 0.66668701171875 33.999969482421875)"><path d="M11.04 39.61 C8.57 46.83, 6.11 54.04, 1.33 68 M11.04 39.61 C8.88 45.94, 6.72 52.26, 1.33 68" stroke="#000000" stroke-width="2" fill="none"></path></g></g><mask></mask><g mask="url(#mask-I9kZzcDgtyD5xJYdEfkJQ)" stroke-linecap="round"><g transform="translate(1180.9998779296875 321.3333435058594) rotate(0 126.00006103515625 94.66665649414062)"><path d="M0 0 C0.19 11.22, 0.38 22.44, 0.67 39.33 M0 0 C0.15 8.73, 0.3 17.46, 0.67 39.33 M0.67 39.33 C0.67 76.01, 0.67 112.68, 0.67 189.33 M0.67 39.33 C0.67 92.96, 0.67 146.58, 0.67 189.33 M0.67 189.33 C73.27 188.76, 145.87 188.18, 252 187.33 M0.67 189.33 C79.48 188.71, 158.29 188.08, 252 187.33" stroke="#000000" stroke-width="2" fill="none"></path></g><g transform="translate(1180.9998779296875 321.3333435058594) rotate(0 126.00006103515625 94.66665649414062)"><path d="M223.89 197.82 C231.91 194.83, 239.93 191.84, 252 187.33 M223.89 197.82 C230.13 195.49, 236.37 193.16, 252 187.33" stroke="#000000" stroke-width="2" fill="none"></path></g><g transform="translate(1180.9998779296875 321.3333435058594) rotate(0 126.00006103515625 94.66665649414062)"><path d="M223.73 177.3 C231.79 180.16, 239.86 183.02, 252 187.33 M223.73 177.3 C230 179.52, 236.28 181.75, 252 187.33" stroke="#000000" stroke-width="2" fill="none"></path></g></g><mask id="mask-I9kZzcDgtyD5xJYdEfkJQ"><rect x="0" y="0" fill="#fff" width="1533" height="610.6666564941406"></rect><rect x="1072.5867462158203" y="423.1666564941406" fill="#000" width="218.15975952148438" height="25" opacity="1"></rect></mask><g transform="translate(1072.5867462158203 423.1666564941406) rotate(0 234.41319274902344 -7.166656494140625)"><text x="109.07987976074219" y="0" font-family="Virgil, Segoe UI Emoji" font-size="20px" fill="#c2255c" text-anchor="middle" style="white-space: pre;" direction="ltr" dominant-baseline="text-before-edge">Top k relevant chunks</text></g></svg>