<svg version="1.1" xmlns="http://www.w3.org/2000/svg" viewBox="0 0 2043.9998779296875 842.0000000000002" width="2043.9998779296875" height="842.0000000000002">
  <!-- svg-source:excalidraw -->
  
  <defs>
    <style class="style-fonts">
      @font-face {
        font-family: "Virgil";
        src: url("https://excalidraw.com/Virgil.woff2");
      }
      @font-face {
        font-family: "Cascadia";
        src: url("https://excalidraw.com/Cascadia.woff2");
      }
      @font-face {
        font-family: "Assistant";
        src: url("https://excalidraw.com/Assistant-Regular.woff2");
      }
    </style>
    
  </defs>
  <rect x="0" y="0" width="2043.9998779296875" height="842.0000000000002" fill="#ffffff"></rect><g stroke-linecap="round" transform="translate(31.536879027391365 242.71505907361166) rotate(0 43.136790463102315 65.45768254075341)"><path d="M1.49 0.65 L86.89 0.86 L85.19 129.46 L0.51 130.96" stroke="none" stroke-width="0" fill="#e7f5ff"></path><path d="M0 0 C22.71 0.77, 43.92 -1.9, 86.27 0 M0 0 C17 0.41, 36.37 0.97, 86.27 0 M86.27 0 C86.19 44.75, 84.75 89.35, 86.27 130.92 M86.27 0 C86.08 34.54, 87.83 68.65, 86.27 130.92 M86.27 130.92 C57.75 129.93, 31.42 130.06, 0 130.92 M86.27 130.92 C56.89 130.75, 29.02 130.6, 0 130.92 M0 130.92 C-1.76 92.55, -2.67 58.71, 0 0 M0 130.92 C-0.96 88.31, 0.42 46.9, 0 0" stroke="#000000" stroke-width="2" fill="none"></path></g><g stroke-linecap="round" transform="translate(22.32412930288274 234.14600979196138) rotate(0 43.136790463102315 65.45768254075341)"><path d="M0.61 0.86 L85.19 -1.46 L86.78 130.96 L-1.04 130.44" stroke="none" stroke-width="0" fill="#e7f5ff"></path><path d="M0 0 C25.65 -2.27, 48.58 -0.6, 86.27 0 M0 0 C21.98 0.55, 42.53 -0.22, 86.27 0 M86.27 0 C85.31 40.34, 85.67 83.14, 86.27 130.92 M86.27 0 C86.12 44.99, 85.4 89.68, 86.27 130.92 M86.27 130.92 C65.78 130.34, 45.1 131.67, 0 130.92 M86.27 130.92 C59.32 130.13, 30.83 131.32, 0 130.92 M0 130.92 C-1.2 89.81, 1 46.14, 0 0 M0 130.92 C1.6 80.13, 1.65 28.8, 0 0" stroke="#000000" stroke-width="2" fill="none"></path></g><g stroke-linecap="round" transform="translate(10.856043952653863 224.07090582336957) rotate(0 43.136790463102315 65.45768254075341)"><path d="M-1.09 -1.46 L86.78 0.05 L85.24 130.44 L-1.21 132.34" stroke="none" stroke-width="0" fill="#e7f5ff"></path><path d="M0 0 C27.03 0.56, 56.73 -0.59, 86.27 0 M0 0 C25.7 -0.7, 50.65 -0.27, 86.27 0 M86.27 0 C84.73 38.27, 86.33 72.96, 86.27 130.92 M86.27 0 C87.7 45.34, 86.92 89.2, 86.27 130.92 M86.27 130.92 C63.22 131.73, 39.15 129.92, 0 130.92 M86.27 130.92 C63.17 131.2, 40.7 130.08, 0 130.92 M0 130.92 C1.59 102, 2.97 70.87, 0 0 M0 130.92 C-0.17 96.93, -0.61 62.72, 0 0" stroke="#000000" stroke-width="2" fill="none"></path></g><g stroke-linecap="round"><g transform="translate(25.487236798468416 283.57406306285026) rotate(0 28.428762993416584 -1.7914015036947717)"><path d="M-0.18 -0.67 C8.1 -0.47, 38.79 0.53, 48.48 0.1 C58.17 -0.32, 56.5 -2.49, 57.98 -3.2 M-1.73 1.59 C7.03 2.09, 40.82 2.73, 50.74 1.6 C60.66 0.46, 56.61 -4.44, 57.81 -5.23" stroke="#000000" stroke-width="1" fill="none"></path></g></g><mask></mask><g stroke-linecap="round"><g transform="translate(27.751844442389597 245.16606188917348) rotate(0 27.810859286345092 -1.710918247731641)"><path d="M-0.86 -0.09 C2.78 -0.45, 12.17 -2.73, 21.67 -2.84 C31.17 -2.95, 50.47 -1.17, 56.15 -0.74 M0.88 -1.18 C4.48 -1.84, 12.18 -4.92, 21.31 -4.66 C30.44 -4.4, 49.86 -0.54, 55.66 0.4" stroke="#000000" stroke-width="1" fill="none"></path></g></g><mask></mask><g stroke-linecap="round"><g transform="translate(27.658343490477705 327.43078686979175) rotate(0 29.501007661570014 0.21366510317727716)"><path d="M1.12 0.58 C6.73 0.49, 25.28 -1.05, 32.77 -0.65 C40.26 -0.25, 41.75 3.41, 46.09 3 C50.43 2.59, 56.74 -2.11, 58.82 -3.09 M0.25 -0.16 C5.82 -0.07, 24.57 -0.05, 32.1 0.71 C39.63 1.47, 40.93 4.92, 45.41 4.41 C49.89 3.9, 56.46 -1.16, 58.97 -2.35" stroke="#000000" stroke-width="1" fill="none"></path></g></g><mask></mask><g stroke-linecap="round"><g transform="translate(23.771746596453 341.15469961083113) rotate(0 33.20583366993576 -1.0281086890770155)"><path d="M0.53 -0.34 C2.44 -0.64, 9.41 -1.02, 12.58 -1.25 C15.74 -1.48, 12.27 -1.98, 19.51 -1.72 C26.75 -1.47, 48.1 0.37, 56.01 0.27 C63.93 0.18, 65.42 -1.89, 66.99 -2.32 M-0.65 -1.56 C1.02 -1.7, 8.5 0.25, 11.72 0.38 C14.93 0.51, 11.26 -0.9, 18.65 -0.77 C26.03 -0.64, 48.16 1.28, 56.02 1.13 C63.88 0.98, 64.1 -0.97, 65.82 -1.67" stroke="#000000" stroke-width="1" fill="none"></path></g></g><mask></mask><g stroke-linecap="round"><g transform="translate(24.119439155662803 263.5497364649109) rotate(0 28.641654186609287 0.7892551552510554)"><path d="M0.17 0.17 C3.75 -0.01, 12.58 -1.69, 22.03 -1.42 C31.47 -1.14, 50.86 1.13, 56.83 1.83 M-1.21 -0.78 C2.16 -0.79, 11.48 -0.86, 20.99 -0.24 C30.49 0.37, 49.59 2.78, 55.83 2.9" stroke="#000000" stroke-width="1" fill="none"></path></g></g><mask></mask><g stroke-linecap="round"><g transform="translate(24.25064427464656 305.6417005236565) rotate(0 28.641654186609287 0.7892551552510554)"><path d="M-0.18 -0.69 C1.36 -0.51, 5.6 1.19, 9.43 1.27 C13.25 1.35, 14.97 -0.49, 22.78 -0.24 C30.59 0.02, 50.36 2.3, 56.29 2.81 M-1.73 1.56 C-0.4 1.89, 4.23 3.21, 8.24 2.56 C12.25 1.91, 14.36 -1.98, 22.32 -2.32 C30.28 -2.66, 50.15 -0.44, 56.02 0.52" stroke="#000000" stroke-width="1" fill="none"></path></g></g><mask></mask><g transform="translate(10 186.00003051757812) rotate(0 51.58995056152344 12.5)"><text x="0" y="0" font-family="Virgil, Segoe UI Emoji" font-size="20px" fill="#1e1e1e" text-anchor="start" style="white-space: pre;" direction="ltr" dominant-baseline="text-before-edge">Documents</text></g><g transform="translate(284.9675144107222 722.3386433920582) rotate(0 23 12.5)"><text x="0" y="0" font-family="Virgil, Segoe UI Emoji" font-size="20px" fill="#000000" text-anchor="start" style="white-space: pre;" direction="ltr" dominant-baseline="text-before-edge">User</text></g><g stroke-linecap="round"><g transform="translate(282.1802937622148 712.6857173820795) rotate(0 24.63471035906872 -21.936502105304612)" fill-rule="evenodd"><path d="M13.47 -38.64 C13.47 -38.64, 13.47 -38.64, 13.47 -38.64 M13.47 -38.64 C13.47 -38.64, 13.47 -38.64, 13.47 -38.64 M3.11 -14.53 C10.37 -22.89, 17.64 -31.24, 28.04 -43.2 M3.11 -14.53 C12.73 -25.6, 22.35 -36.67, 28.04 -43.2 M0.61 0.53 C10.07 -10.34, 19.52 -21.21, 35.39 -39.47 M0.61 0.53 C11.3 -11.76, 21.98 -24.05, 35.39 -39.47 M11.24 0.5 C22.39 -12.32, 33.54 -25.14, 40.77 -33.46 M11.24 0.5 C17.58 -6.78, 23.91 -14.07, 40.77 -33.46 M21.87 0.47 C30.65 -9.63, 39.42 -19.72, 44.84 -25.95 M21.87 0.47 C29.93 -8.81, 37.99 -18.08, 44.84 -25.95 M32.5 0.43 C36.72 -4.42, 40.93 -9.26, 48.91 -18.44 M32.5 0.43 C39.06 -7.11, 45.62 -14.65, 48.91 -18.44 M44.45 -1.11 C46.58 -3.57, 48.71 -6.02, 51.66 -9.41 M44.45 -1.11 C47.04 -4.09, 49.63 -7.07, 51.66 -9.41 M0 0 C0 0, 0 0, 0 0 M0 0 C0 0, 0 0, 0 0 M12.04 -0.13 C9.89 -2.01, 7.73 -3.88, 1.47 -9.32 M12.04 -0.13 C9.68 -2.19, 7.32 -4.24, 1.47 -9.32 M24.84 0.39 C16.1 -7.21, 7.36 -14.81, 2.95 -18.64 M24.84 0.39 C16.64 -6.73, 8.45 -13.86, 2.95 -18.64 M36.12 -0.4 C28.05 -7.42, 19.98 -14.44, 5.18 -27.3 M36.12 -0.4 C27.59 -7.81, 19.06 -15.23, 5.18 -27.3 M46.65 -1.84 C32.95 -13.76, 19.24 -25.68, 9.67 -33.99 M46.65 -1.84 C38.36 -9.06, 30.06 -16.27, 9.67 -33.99 M51.9 -7.88 C37.72 -20.21, 23.54 -32.54, 14.92 -40.03 M51.9 -7.88 C41.45 -16.97, 31 -26.05, 14.92 -40.03 M47.34 -22.45 C38.58 -30.06, 29.82 -37.68, 22.43 -44.1 M47.34 -22.45 C38.57 -30.08, 29.79 -37.7, 22.43 -44.1" stroke="#ced4da" stroke-width="1" fill="none"></path><path d="M0 0 C0.92 -4.85, 1.58 -21.76, 5.52 -29.07 C9.46 -36.38, 17.61 -43.34, 23.65 -43.87 C29.69 -44.4, 37.51 -39.05, 41.78 -32.24 C46.05 -25.43, 56.23 -8.39, 49.27 -3.02 C42.31 2.36, 8.21 -0.5, 0 0 M0 0 C0.92 -4.85, 1.58 -21.76, 5.52 -29.07 C9.46 -36.38, 17.61 -43.34, 23.65 -43.87 C29.69 -44.4, 37.51 -39.05, 41.78 -32.24 C46.05 -25.43, 56.23 -8.39, 49.27 -3.02 C42.31 2.36, 8.21 -0.5, 0 0" stroke="#000000" stroke-width="2" fill="none"></path></g></g><mask></mask><g stroke-linecap="round" transform="translate(294.63416459853045 645.994669596223) rotate(0 12.612971703843215 11.036350240862816)"><path d="M2.98 3.91 C2.98 3.91, 2.98 3.91, 2.98 3.91 M2.98 3.91 C2.98 3.91, 2.98 3.91, 2.98 3.91 M2.45 16.71 C5.77 12.89, 9.09 9.08, 16.23 0.86 M2.45 16.71 C7.54 10.86, 12.62 5.02, 16.23 0.86 M8.49 21.96 C12.3 17.58, 16.1 13.2, 22.92 5.35 M8.49 21.96 C13.99 15.63, 19.48 9.31, 22.92 5.35 M4.36 19.37 C4.36 19.37, 4.36 19.37, 4.36 19.37 M4.36 19.37 C4.36 19.37, 4.36 19.37, 4.36 19.37 M17.91 20.55 C14.54 17.62, 11.17 14.69, 1.31 6.11 M17.91 20.55 C12.65 15.97, 7.38 11.39, 1.31 6.11 M23.92 15.17 C19.3 11.15, 14.68 7.14, 7.31 0.73 M23.92 15.17 C18.46 10.42, 13 5.67, 7.31 0.73" stroke="#ced4da" stroke-width="1" fill="none"></path><path d="M25.23 11.04 C25.23 11.68, 25.16 12.32, 25.03 12.95 C24.91 13.58, 24.71 14.21, 24.47 14.81 C24.22 15.41, 23.9 16, 23.54 16.55 C23.17 17.11, 22.74 17.64, 22.28 18.13 C21.81 18.62, 21.28 19.08, 20.72 19.49 C20.16 19.9, 19.55 20.27, 18.92 20.59 C18.29 20.91, 17.61 21.19, 16.93 21.41 C16.24 21.63, 15.52 21.79, 14.8 21.91 C14.08 22.02, 13.34 22.07, 12.61 22.07 C11.88 22.07, 11.14 22.02, 10.42 21.91 C9.7 21.79, 8.99 21.63, 8.3 21.41 C7.61 21.19, 6.94 20.91, 6.31 20.59 C5.67 20.27, 5.06 19.9, 4.51 19.49 C3.95 19.08, 3.42 18.62, 2.95 18.13 C2.48 17.64, 2.05 17.11, 1.69 16.55 C1.32 16, 1.01 15.41, 0.76 14.81 C0.51 14.21, 0.32 13.58, 0.19 12.95 C0.06 12.32, 0 11.68, 0 11.04 C0 10.4, 0.06 9.75, 0.19 9.12 C0.32 8.49, 0.51 7.86, 0.76 7.26 C1.01 6.66, 1.32 6.07, 1.69 5.52 C2.05 4.96, 2.48 4.43, 2.95 3.94 C3.42 3.45, 3.95 2.99, 4.51 2.58 C5.06 2.17, 5.67 1.8, 6.31 1.48 C6.94 1.16, 7.61 0.88, 8.3 0.67 C8.99 0.45, 9.7 0.28, 10.42 0.17 C11.14 0.06, 11.88 0, 12.61 0 C13.34 0, 14.08 0.06, 14.8 0.17 C15.52 0.28, 16.24 0.45, 16.93 0.67 C17.61 0.88, 18.29 1.16, 18.92 1.48 C19.55 1.8, 20.16 2.17, 20.72 2.58 C21.28 2.99, 21.81 3.45, 22.28 3.94 C22.74 4.43, 23.17 4.96, 23.54 5.52 C23.9 6.07, 24.22 6.66, 24.47 7.26 C24.71 7.86, 24.91 8.49, 25.03 9.12 C25.16 9.75, 25.19 10.72, 25.23 11.04 C25.26 11.36, 25.26 10.72, 25.23 11.04" stroke="#000000" stroke-width="2" fill="none"></path></g><g stroke-linecap="round" transform="translate(493.5689392089844 656.7898254394531) rotate(0 62.43096923828125 34.210235595703125)"><path d="M17.11 0 C44.31 0.85, 80.03 -3.44, 107.76 0 C117.77 0.12, 122.96 3.2, 124.86 17.11 C126.35 24.85, 128.2 38.77, 124.86 51.32 C124.06 61.53, 117.22 65.98, 107.76 68.42 C79.04 67.4, 48.47 66.53, 17.11 68.42 C4.7 69.1, -2.05 59.92, 0 51.32 C-1.48 43.84, -0.63 29.79, 0 17.11 C3.1 6.81, 2.68 -2.6, 17.11 0" stroke="none" stroke-width="0" fill="#e7f5ff"></path><path d="M17.11 0 C43.35 -0.35, 65.87 -0.82, 107.76 0 M17.11 0 C39.54 -0.13, 61.42 -0.1, 107.76 0 M107.76 0 C117.47 -0.23, 124.99 4.52, 124.86 17.11 M107.76 0 C119.33 2.04, 125.59 4.62, 124.86 17.11 M124.86 17.11 C127.02 25.26, 125.63 32.87, 124.86 51.32 M124.86 17.11 C125.07 24.59, 124.73 32.13, 124.86 51.32 M124.86 51.32 C123.79 60.99, 121.01 70.23, 107.76 68.42 M124.86 51.32 C123.45 62.72, 117.73 66.97, 107.76 68.42 M107.76 68.42 C77.3 69.55, 47.89 69.56, 17.11 68.42 M107.76 68.42 C73.32 69.07, 39.93 69.11, 17.11 68.42 M17.11 68.42 C6.71 69, 0.64 63.56, 0 51.32 M17.11 68.42 C6.89 68.79, 0.56 64.88, 0 51.32 M0 51.32 C-0.85 42.14, -1.84 36.43, 0 17.11 M0 51.32 C0.59 39.78, -0.75 28.24, 0 17.11 M0 17.11 C1.64 6.91, 4.97 1.02, 17.11 0 M0 17.11 C-1.36 4.5, 3.81 0.39, 17.11 0" stroke="#000000" stroke-width="1" fill="none"></path></g><g transform="translate(528.8099365234375 678.5000610351562) rotate(0 27.189971923828125 12.5)"><text x="27.189971923828125" y="0" font-family="Virgil, Segoe UI Emoji" font-size="20px" fill="#1e1e1e" text-anchor="middle" style="white-space: pre;" direction="ltr" dominant-baseline="text-before-edge">Query</text></g><g transform="translate(775.9998779296875 190.33328247070312) rotate(0 51.21995544433594 12.5)"><text x="0" y="0" font-family="Virgil, Segoe UI Emoji" font-size="20px" fill="#1e1e1e" text-anchor="start" style="white-space: pre;" direction="ltr" dominant-baseline="text-before-edge">Vector DB</text></g><g stroke-linecap="round"><g transform="translate(789.8215642103733 237.90481275889255) rotate(0 44.060593016404425 47.85201411482009)" fill-rule="evenodd"><path d="M-0.72 -1.43 C-0.22 12.7, 1.05 68.92, 0.85 84.97 C0.65 101.03, -2.2 92.66, -1.94 94.89 C-1.68 97.12, -0.99 96.8, 2.39 98.37 C5.78 99.95, 10.88 103.55, 18.38 104.34 C25.87 105.13, 37.98 103.49, 47.35 103.11 C56.73 102.72, 68.47 102.77, 74.62 102.03 C80.77 101.29, 82.46 99.75, 84.27 98.67 C86.08 97.58, 84.79 97.4, 85.5 95.5 C86.21 93.61, 88.12 101.66, 88.54 87.28 C88.96 72.91, 88.22 23.64, 88.02 9.26 C87.82 -5.12, 88.4 2.91, 87.34 1 C86.29 -0.9, 84.77 -0.47, 81.67 -2.18 C78.56 -3.89, 75.04 -8.2, 68.72 -9.25 C62.4 -10.29, 51.97 -8.48, 43.75 -8.45 C35.52 -8.42, 25.7 -10.18, 19.35 -9.08 C13 -7.99, 9.06 -3.42, 5.65 -1.91 C2.24 -0.4, -0.14 -0.67, -1.13 -0.02 C-2.12 0.63, -0.43 2.3, -0.3 2.01" stroke="none" stroke-width="0" fill="#228be6" fill-rule="evenodd"></path><path d="M-0.76 0.1 C-0.74 14.38, -1.1 70, -0.91 85.95 C-0.71 101.9, -0.47 93.28, 0.4 95.8 C1.27 98.32, 0.81 99.61, 4.32 101.08 C7.83 102.54, 14.16 104.19, 21.45 104.62 C28.74 105.04, 39.69 103.71, 48.05 103.61 C56.42 103.5, 65.5 104.62, 71.65 104 C77.81 103.37, 82.42 101.2, 84.97 99.86 C87.52 98.53, 86.6 98.21, 86.95 95.98 C87.31 93.76, 86.95 101.43, 87.1 86.51 C87.26 71.59, 87.62 21.04, 87.87 6.47 C88.13 -8.1, 89.54 0.86, 88.63 -0.93 C87.71 -2.72, 85.41 -3.45, 82.38 -4.28 C79.34 -5.11, 77.17 -4.92, 70.44 -5.92 C63.71 -6.91, 50.45 -9.81, 42 -10.23 C33.56 -10.64, 26.33 -9.5, 19.76 -8.43 C13.19 -7.36, 5.93 -5.13, 2.58 -3.81 C-0.78 -2.49, 0.23 -1.01, -0.38 -0.51 C-0.99 -0.02, -1 -0.92, -1.1 -0.86 M1.04 -0.89 C1.49 13.56, 1.38 71.11, 1.17 87.44 C0.97 103.77, -0.71 95.16, -0.16 97.09 C0.38 99.02, 1 98.25, 4.45 99.04 C7.91 99.83, 13.59 100.75, 20.57 101.85 C27.56 102.94, 37.82 105.39, 46.37 105.61 C54.92 105.83, 65.09 104.09, 71.87 103.18 C78.66 102.26, 84.3 101.47, 87.06 100.11 C89.82 98.75, 88.4 97.45, 88.44 95.04 C88.48 92.63, 87.36 100.32, 87.31 85.66 C87.26 71, 88.06 21.61, 88.15 7.06 C88.23 -7.49, 88.69 0.35, 87.82 -1.66 C86.94 -3.66, 85.86 -4.3, 82.9 -4.95 C79.93 -5.59, 76.85 -5.07, 70.02 -5.53 C63.2 -5.99, 50.27 -7.4, 41.96 -7.73 C33.66 -8.05, 26.45 -8.25, 20.18 -7.48 C13.92 -6.72, 8.03 -4.32, 4.36 -3.13 C0.68 -1.95, -1.21 -0.73, -1.84 -0.39 C-2.47 -0.04, 0.45 -1.4, 0.59 -1.05" stroke="#0a11d3" stroke-width="1" fill="none"></path></g></g><mask></mask><g stroke-linecap="round"><g transform="translate(790.5089257998707 303.1949407896801) rotate(0 44.15404313987261 4.448651936218312)"><path d="M-1.2 -0.1 C-0.62 0.53, 0.49 2.48, 2.71 3.86 C4.94 5.23, 8.12 7.13, 12.14 8.17 C16.16 9.22, 20.92 10.12, 26.84 10.12 C32.77 10.12, 40.47 8.35, 47.7 8.17 C54.93 8, 64.14 9.68, 70.23 9.08 C76.33 8.49, 81.41 6.06, 84.27 4.61 C87.12 3.16, 86.86 1.35, 87.36 0.38 M0.37 -1.2 C0.89 -0.38, 0.15 4.11, 1.97 5.37 C3.78 6.62, 7.58 5.9, 11.26 6.35 C14.93 6.8, 18.1 7.8, 24.02 8.06 C29.95 8.33, 38.92 7.86, 46.79 7.95 C54.66 8.03, 64.96 9.25, 71.22 8.57 C77.49 7.88, 81.33 5.2, 84.37 3.85 C87.42 2.51, 88.78 1.01, 89.49 0.48" stroke="#0a11d3" stroke-width="1" fill="none"></path></g></g><mask></mask><g stroke-linecap="round"><g transform="translate(789.4151842878092 270.12078622760833) rotate(0 44.15404313987261 4.448651936218312)"><path d="M0.39 -0.05 C0.94 0.78, -0.08 3.53, 2.1 4.9 C4.29 6.26, 9.38 7.62, 13.49 8.13 C17.6 8.65, 21.39 7.62, 26.78 7.99 C32.17 8.36, 38.62 10.14, 45.82 10.35 C53.03 10.55, 63.59 10.21, 70.01 9.21 C76.43 8.2, 81.47 6.06, 84.34 4.32 C87.21 2.59, 86.6 -0.28, 87.24 -1.2 M-0.87 -1.12 C-0.39 -0.6, -1.32 2.06, 1.04 3.3 C3.41 4.53, 9.5 5.43, 13.32 6.29 C17.13 7.15, 18.22 8.26, 23.93 8.48 C29.64 8.7, 39.76 7.55, 47.59 7.6 C55.42 7.65, 64.74 9.45, 70.89 8.76 C77.03 8.06, 81.41 5.2, 84.49 3.41 C87.56 1.63, 88.98 -1.49, 89.32 -1.94" stroke="#0a11d3" stroke-width="1" fill="none"></path></g></g><mask></mask><g stroke-linecap="round" transform="translate(788.2943616016476 229.88011653179586) rotate(0 43.825373054270926 8.863351988406833)"><path d="M43.69 -0.24 C52.48 -0.34, 63.84 1.02, 71.06 2.2 C78.28 3.39, 85.2 4.98, 87 6.88 C88.8 8.77, 86.38 11.89, 81.84 13.57 C77.3 15.24, 68.5 16.33, 59.77 16.93 C51.03 17.53, 38.29 17.77, 29.43 17.17 C20.57 16.57, 11.47 14.92, 6.6 13.32 C1.73 11.73, -1.18 9.49, 0.19 7.6 C1.57 5.7, 7.24 3.18, 14.85 1.94 C22.46 0.69, 40.34 0.41, 45.86 0.1 C51.37 -0.21, 47.96 -0.01, 47.93 0.06 M51.71 -0.44 C60.36 -0.22, 71.32 1.15, 77.39 2.61 C83.46 4.06, 88.15 6.24, 88.13 8.3 C88.11 10.37, 83.47 13.31, 77.27 14.98 C71.06 16.65, 60.19 18.06, 50.91 18.3 C41.63 18.54, 29.8 17.54, 21.59 16.44 C13.38 15.34, 4.69 13.57, 1.63 11.67 C-1.43 9.78, -0.33 6.86, 3.21 5.05 C6.75 3.23, 14.62 1.64, 22.86 0.77 C31.1 -0.1, 47.82 -0.03, 52.63 -0.16 C57.45 -0.28, 52.02 -0.07, 51.72 0.02" stroke="none" stroke-width="0" fill="#fff"></path><path d="M53.57 -0.09 C62.38 0.08, 73.73 1.65, 79.47 3.16 C85.22 4.68, 88.62 7.12, 88.04 9.01 C87.45 10.9, 82.55 13.08, 75.96 14.52 C69.37 15.96, 57.91 17.27, 48.47 17.63 C39.03 18, 27.14 17.73, 19.32 16.73 C11.5 15.73, 4.15 13.47, 1.56 11.61 C-1.03 9.75, -0.1 7.39, 3.76 5.56 C7.62 3.73, 16.06 1.58, 24.73 0.64 C33.41 -0.31, 50.28 -0.04, 55.82 -0.12 C61.36 -0.19, 58.1 -0.02, 57.97 0.18 M39.02 -0.04 C47.85 -0.22, 60.19 0.61, 67.99 1.63 C75.8 2.65, 83.19 4.3, 85.84 6.06 C88.48 7.82, 87.83 10.46, 83.87 12.21 C79.92 13.96, 70.71 15.78, 62.09 16.57 C53.48 17.36, 41.28 17.31, 32.19 16.92 C23.1 16.53, 12.87 15.76, 7.55 14.22 C2.23 12.67, -0.7 9.63, 0.25 7.65 C1.2 5.68, 6.76 3.63, 13.23 2.35 C19.71 1.08, 34.81 0.36, 39.1 0.02 C43.39 -0.32, 38.8 0.17, 38.97 0.33" stroke="#0a11d3" stroke-width="1" fill="none"></path></g><g stroke-linecap="round" transform="translate(859.804093902228 254.4559194089294) rotate(0 6.423028523489904 6.970952181208048)"><path d="M5.87 0.21 C7.11 0.09, 9.5 0.27, 10.6 1.24 C11.7 2.21, 12.18 4.55, 12.48 6.04 C12.78 7.52, 13.02 8.91, 12.4 10.14 C11.77 11.37, 10 12.87, 8.72 13.42 C7.44 13.98, 6.09 13.93, 4.73 13.48 C3.37 13.02, 1.37 12, 0.54 10.7 C-0.29 9.39, -0.55 7.13, -0.25 5.65 C0.05 4.16, 1.23 2.76, 2.33 1.79 C3.44 0.82, 5.59 0.17, 6.39 -0.15 C7.18 -0.48, 7 -0.39, 7.1 -0.17 M4.54 -0.57 C5.99 -0.96, 8.58 -0.78, 9.98 0.1 C11.37 0.97, 12.39 3.06, 12.88 4.69 C13.37 6.32, 13.35 8.49, 12.91 9.86 C12.48 11.23, 11.62 12.25, 10.27 12.91 C8.91 13.57, 6.18 14.15, 4.77 13.82 C3.37 13.5, 2.62 12.15, 1.85 10.98 C1.08 9.82, 0.16 8.27, 0.13 6.83 C0.1 5.38, 0.91 3.47, 1.67 2.31 C2.43 1.14, 4.2 0.27, 4.68 -0.18 C5.15 -0.63, 4.45 -0.57, 4.53 -0.38" stroke="none" stroke-width="0" fill="#fff"></path><path d="M8.26 -0.25 C9.71 -0.04, 11.19 1.17, 12.01 2.36 C12.83 3.55, 13.38 5.31, 13.19 6.87 C12.99 8.42, 11.87 10.42, 10.82 11.67 C9.78 12.92, 8.27 14.13, 6.92 14.36 C5.56 14.6, 3.79 13.91, 2.7 13.06 C1.62 12.21, 0.7 10.78, 0.41 9.26 C0.12 7.75, 0.53 5.47, 0.96 3.98 C1.39 2.48, 1.82 0.98, 3.01 0.29 C4.2 -0.4, 7.14 -0.22, 8.09 -0.18 C9.04 -0.15, 8.73 0.37, 8.71 0.49 M4.62 0.18 C5.96 -0.22, 8.06 -0.19, 9.39 0.48 C10.73 1.16, 12.21 2.81, 12.62 4.23 C13.03 5.66, 12.47 7.66, 11.87 9.04 C11.26 10.41, 10.19 11.64, 9 12.47 C7.81 13.31, 5.96 14.3, 4.74 14.05 C3.51 13.8, 2.31 12.18, 1.63 10.96 C0.95 9.73, 0.77 8.11, 0.66 6.7 C0.55 5.29, 0.31 3.57, 0.96 2.49 C1.61 1.41, 3.8 0.59, 4.55 0.22 C5.29 -0.15, 5.27 0.05, 5.42 0.25" stroke="#0a11d3" stroke-width="1" fill="none"></path></g><g stroke-linecap="round" transform="translate(859.804093902228 285.05837326798985) rotate(0 6.423028523489904 6.970952181208048)"><path d="M5.78 -0.27 C7.1 -0.5, 8.49 0.68, 9.68 1.52 C10.87 2.35, 12.49 3.37, 12.93 4.73 C13.37 6.08, 12.87 8.25, 12.34 9.65 C11.8 11.04, 11.03 12.4, 9.74 13.11 C8.45 13.82, 6.06 14.27, 4.59 13.91 C3.13 13.54, 1.7 12.14, 0.96 10.93 C0.21 9.73, 0.04 8.16, 0.12 6.68 C0.21 5.2, 0.47 3.22, 1.48 2.05 C2.48 0.88, 5.29 -0.08, 6.18 -0.33 C7.07 -0.58, 6.89 0.45, 6.8 0.55 M5.62 -0.61 C7.06 -0.82, 8.76 0.17, 9.96 1.11 C11.15 2.06, 12.28 3.74, 12.79 5.08 C13.3 6.42, 13.62 7.87, 13.01 9.17 C12.39 10.46, 10.3 12.18, 9.09 12.87 C7.88 13.55, 6.95 13.52, 5.73 13.26 C4.5 12.99, 2.66 12.35, 1.75 11.28 C0.84 10.21, 0.42 8.34, 0.28 6.84 C0.14 5.35, 0.22 3.55, 0.92 2.32 C1.62 1.1, 3.8 -0.19, 4.49 -0.52 C5.18 -0.84, 4.83 0.14, 5.04 0.39" stroke="none" stroke-width="0" fill="#fff"></path><path d="M5.82 -0.3 C7.08 -0.63, 8.96 -0.3, 10.02 0.52 C11.08 1.33, 11.81 3.04, 12.16 4.6 C12.51 6.16, 12.6 8.43, 12.13 9.88 C11.66 11.32, 10.48 12.57, 9.35 13.26 C8.23 13.96, 6.62 14.41, 5.38 14.06 C4.15 13.7, 2.91 12.39, 1.93 11.12 C0.96 9.85, -0.37 7.97, -0.48 6.44 C-0.59 4.91, 0.31 3.04, 1.29 1.95 C2.27 0.87, 4.73 0.31, 5.41 -0.06 C6.1 -0.43, 5.44 -0.33, 5.41 -0.26 M6.04 -0.43 C7.48 -0.63, 9.58 0.23, 10.6 1.19 C11.61 2.14, 11.98 3.86, 12.12 5.29 C12.25 6.72, 12.06 8.38, 11.41 9.78 C10.75 11.17, 9.33 13.12, 8.18 13.67 C7.03 14.21, 5.59 13.63, 4.5 13.07 C3.4 12.51, 2.43 11.5, 1.61 10.31 C0.78 9.12, -0.43 7.32, -0.46 5.91 C-0.49 4.5, 0.3 2.84, 1.43 1.86 C2.57 0.87, 5.56 0.19, 6.37 0.01 C7.18 -0.17, 6.3 0.58, 6.28 0.77" stroke="#0a11d3" stroke-width="1" fill="none"></path></g><g stroke-linecap="round" transform="translate(859.804093902228 318.3191744424865) rotate(0 6.423028523489904 6.970952181208048)"><path d="M6.85 0.42 C8.2 0.5, 10.41 0.91, 11.41 1.91 C12.41 2.91, 12.73 4.92, 12.84 6.43 C12.94 7.94, 12.9 9.75, 12.03 10.99 C11.15 12.24, 9.06 13.55, 7.6 13.88 C6.14 14.22, 4.43 13.68, 3.27 13.01 C2.12 12.35, 1.22 11.24, 0.67 9.89 C0.12 8.54, -0.4 6.39, -0.01 4.89 C0.38 3.38, 1.71 1.59, 2.98 0.85 C4.26 0.11, 6.96 0.64, 7.61 0.46 C8.27 0.29, 7.07 -0.2, 6.92 -0.22 M5.4 0.47 C6.64 0.29, 8.45 0.79, 9.69 1.41 C10.92 2.03, 12.44 2.94, 12.8 4.19 C13.17 5.44, 12.31 7.58, 11.88 8.91 C11.45 10.24, 11.22 11.4, 10.21 12.18 C9.2 12.95, 7.19 13.69, 5.82 13.57 C4.46 13.45, 3.09 12.53, 2.04 11.45 C0.99 10.36, -0.22 8.62, -0.46 7.08 C-0.69 5.53, -0.26 3.3, 0.62 2.17 C1.5 1.04, 4.01 0.58, 4.81 0.3 C5.61 0.02, 5.34 0.42, 5.43 0.49" stroke="none" stroke-width="0" fill="#fff"></path><path d="M5.41 -0.29 C6.54 -0.61, 7.99 -0.08, 9.1 0.77 C10.21 1.62, 11.52 3.38, 12.06 4.81 C12.59 6.24, 12.64 7.95, 12.3 9.33 C11.95 10.71, 11.02 12.39, 9.97 13.1 C8.92 13.81, 7.48 13.9, 6.01 13.58 C4.55 13.26, 2.23 12.31, 1.19 11.17 C0.15 10.03, -0.25 8.18, -0.24 6.74 C-0.22 5.31, 0.4 3.75, 1.29 2.56 C2.19 1.38, 4.47 0.11, 5.13 -0.36 C5.79 -0.82, 5.2 -0.33, 5.25 -0.21 M6.74 -0.33 C7.99 -0.36, 9.17 0.49, 10.07 1.44 C10.96 2.4, 11.91 3.84, 12.11 5.4 C12.32 6.96, 11.9 9.53, 11.31 10.8 C10.73 12.08, 9.69 12.67, 8.59 13.06 C7.5 13.46, 6.14 13.63, 4.75 13.17 C3.36 12.7, 1.15 11.53, 0.26 10.29 C-0.63 9.05, -0.99 7.17, -0.61 5.71 C-0.23 4.25, 1.32 2.38, 2.52 1.53 C3.73 0.69, 5.92 0.79, 6.59 0.63 C7.26 0.46, 6.54 0.42, 6.53 0.55" stroke="#0a11d3" stroke-width="1" fill="none"></path></g><g stroke-linecap="round" transform="translate(1125.9024963378906 290.1231384277344) rotate(0 117.09774780273438 6.5435028076171875)"><path d="M3.27 0 C71.79 0.37, 139.23 -0.9, 230.92 0 M3.27 0 C91.71 0.8, 180.1 1.16, 230.92 0 M230.92 0 C233.21 -0.57, 234.15 0.2, 234.2 3.27 M230.92 0 C232.53 0.23, 234.81 0.77, 234.2 3.27 M234.2 3.27 C233.92 4.67, 234.28 6.2, 234.2 9.82 M234.2 3.27 C234.29 5, 234.23 7.01, 234.2 9.82 M234.2 9.82 C234.4 11.99, 233.44 13.28, 230.92 13.09 M234.2 9.82 C234.54 12.51, 233.41 13.7, 230.92 13.09 M230.92 13.09 C154.99 12.71, 80.19 13.11, 3.27 13.09 M230.92 13.09 C155.8 13.3, 80.33 13.02, 3.27 13.09 M3.27 13.09 C0.32 14.01, 0.87 12.84, 0 9.82 M3.27 13.09 C2.17 12.39, -0.89 11.8, 0 9.82 M0 9.82 C0.3 8.3, -0.1 7.19, 0 3.27 M0 9.82 C0.01 7.69, 0.09 5.79, 0 3.27 M0 3.27 C0.21 1.6, 1.5 -0.33, 3.27 0 M0 3.27 C-0.21 1.3, 0.11 -0.52, 3.27 0" stroke="#000000" stroke-width="1" fill="none"></path></g><g stroke-linecap="round" transform="translate(1440.6666259765625 552.335981201172) rotate(0 127.72534191894533 139.83200939941412)"><path d="M0 0 C92.16 0.68, 185.33 2.39, 255.45 0 M0 0 C92.63 -1.18, 186.68 -2.43, 255.45 0 M255.45 0 C253.08 97.19, 253.68 195.2, 255.45 279.66 M255.45 0 C256.11 105.89, 256.31 213.26, 255.45 279.66 M255.45 279.66 C195.06 278.76, 130.98 278.28, 0 279.66 M255.45 279.66 C165.38 279.95, 76.13 281.03, 0 279.66 M0 279.66 C-2.42 213.55, -1.17 148.29, 0 0 M0 279.66 C0.38 178.99, 0.79 79.38, 0 0" stroke="#000000" stroke-width="1" fill="none"></path></g><g stroke-linecap="round" transform="translate(1440.6666259765625 529.3333129882812) rotate(0 40.86000274658204 9.685333984375006)"><path d="M0.83 0.32 L81.19 0.71 L80.83 18.89 L0.89 19.68" stroke="none" stroke-width="0" fill="white"></path><path d="M0 0 C19.91 0.86, 39.89 0.02, 81.72 0 M0 0 C31.43 -0.71, 62.96 -0.48, 81.72 0 M81.72 0 C81.07 7.87, 82.41 15.46, 81.72 19.37 M81.72 0 C81.86 7.1, 81.44 14.53, 81.72 19.37 M81.72 19.37 C56.77 18.33, 33.62 19.95, 0 19.37 M81.72 19.37 C52.81 19.17, 23.98 19.34, 0 19.37 M0 19.37 C0.3 14.73, 0.61 8.44, 0 0 M0 19.37 C0.08 11.97, -0.43 5.31, 0 0" stroke="#000000" stroke-width="1" fill="none"></path></g><g transform="translate(1446.1146263427734 531.754646484375) rotate(0 32.26618194580078 7.5666671752929915)"><text x="0" y="0" font-family="Virgil, Segoe UI Emoji" font-size="12.106667480468749px" fill="#000000" text-anchor="start" style="white-space: pre;" direction="ltr" dominant-baseline="text-before-edge">Prompt模板</text></g><g stroke-linecap="round"><g transform="translate(563.3333740234375 730) rotate(0 433.6667175292969 28.29838731241864)"><path d="M0 0 C0 -0.17, 0 -0.35, 0 -0.67 M0 0 C0 -0.18, 0 -0.35, 0 -0.67 M0 -0.67 C0 13.74, 0 28.15, 0 46.67 M0 -0.67 C0 17.87, 0 36.4, 0 46.67 M0 46.67 C341.4 50.84, 682.81 55.01, 867.33 57.26 M0 46.67 C240.28 49.6, 480.56 52.54, 867.33 57.26" stroke="#000000" stroke-width="2" fill="none"></path></g><g transform="translate(563.3333740234375 730) rotate(0 433.6667175292969 28.29838731241864)"><path d="M839.02 67.18 C846.36 64.61, 853.71 62.03, 867.33 57.26 M839.02 67.18 C846.52 64.55, 854.03 61.92, 867.33 57.26" stroke="#000000" stroke-width="2" fill="none"></path></g><g transform="translate(563.3333740234375 730) rotate(0 433.6667175292969 28.29838731241864)"><path d="M839.27 46.66 C846.55 49.41, 853.83 52.16, 867.33 57.26 M839.27 46.66 C846.71 49.47, 854.15 52.28, 867.33 57.26" stroke="#000000" stroke-width="2" fill="none"></path></g></g><mask></mask><g transform="translate(1462.0001220703125 565.1665649414062) rotate(0 80 20)"><text x="0" y="0" font-family="Virgil, Segoe UI Emoji" font-size="16px" fill="#1e1e1e" text-anchor="start" style="white-space: pre;" direction="ltr" dominant-baseline="text-before-edge">你的任务是根据给定的</text><text x="0" y="20" font-family="Virgil, Segoe UI Emoji" font-size="16px" fill="#1e1e1e" text-anchor="start" style="white-space: pre;" direction="ltr" dominant-baseline="text-before-edge">知识回答问题</text></g><g transform="translate(1466.0001220703125 622) rotate(0 83.26417541503906 30)"><text x="0" y="0" font-family="Virgil, Segoe UI Emoji" font-size="16px" fill="#1e1e1e" text-anchor="start" style="white-space: pre;" direction="ltr" dominant-baseline="text-before-edge">知识：</text><text x="0" y="20" font-family="Virgil, Segoe UI Emoji" font-size="16px" fill="#1e1e1e" text-anchor="start" style="white-space: pre;" direction="ltr" dominant-baseline="text-before-edge">Topk relevant chunks</text><text x="0" y="40" font-family="Virgil, Segoe UI Emoji" font-size="16px" fill="#1e1e1e" text-anchor="start" style="white-space: pre;" direction="ltr" dominant-baseline="text-before-edge"></text></g><g transform="translate(1468.6666259765625 729.9999389648438) rotate(0 32 30)"><text x="0" y="0" font-family="Virgil, Segoe UI Emoji" font-size="16px" fill="#1e1e1e" text-anchor="start" style="white-space: pre;" direction="ltr" dominant-baseline="text-before-edge">用户问：</text><text x="0" y="20" font-family="Virgil, Segoe UI Emoji" font-size="16px" fill="#1e1e1e" text-anchor="start" style="white-space: pre;" direction="ltr" dominant-baseline="text-before-edge">Query</text><text x="0" y="40" font-family="Virgil, Segoe UI Emoji" font-size="16px" fill="#1e1e1e" text-anchor="start" style="white-space: pre;" direction="ltr" dominant-baseline="text-before-edge"></text></g><g stroke-linecap="round" transform="translate(1837.333251953125 639.5) rotate(0 87 74.5)"><path d="M120.73 4.67 C131.59 7.24, 141.5 15.85, 149.64 23.35 C157.77 30.85, 165.66 40.1, 169.52 49.65 C173.38 59.21, 173.81 70.79, 172.79 80.67 C171.78 90.55, 168.83 100.03, 163.43 108.95 C158.04 117.87, 149.55 127.87, 140.43 134.18 C131.31 140.49, 120.17 144.6, 108.71 146.84 C97.25 149.07, 83.55 149.32, 71.69 147.61 C59.83 145.91, 47.27 142.2, 37.57 136.61 C27.86 131.02, 19.44 122.71, 13.47 114.09 C7.5 105.47, 3.25 94.81, 1.73 84.88 C0.21 74.94, 1.31 64.13, 4.34 54.46 C7.37 44.79, 12.48 34.52, 19.91 26.85 C27.33 19.17, 38.31 12.92, 48.9 8.42 C59.49 3.92, 70.31 -0.35, 83.46 -0.16 C96.61 0.03, 119.33 7.04, 127.79 9.57 C136.25 12.1, 134.92 14.15, 134.19 15 M105.62 2.47 C116.87 3.47, 129.62 9, 139.06 15.21 C148.51 21.41, 156.38 30.72, 162.28 39.73 C168.18 48.73, 173.38 59.34, 174.47 69.24 C175.55 79.13, 172.56 89.54, 168.78 99.09 C165.01 108.64, 159.86 118.97, 151.84 126.54 C143.82 134.12, 131.92 140.57, 120.66 144.55 C109.4 148.53, 96.23 150.8, 84.27 150.42 C72.31 150.04, 59.43 146.67, 48.91 142.27 C38.39 137.87, 28.47 131.88, 21.12 124.01 C13.77 116.14, 8.08 104.61, 4.81 95.05 C1.54 85.48, 0.48 76.48, 1.51 66.61 C2.54 56.73, 4.85 44.63, 10.97 35.78 C17.09 26.92, 28.21 19.2, 38.21 13.48 C48.21 7.76, 59.74 3.29, 70.97 1.45 C82.21 -0.39, 99.61 2, 105.62 2.45 C111.63 2.89, 107.43 2.87, 107.05 4.11" stroke="none" stroke-width="0" fill="#a5d8ff"></path><path d="M82.03 1.09 C93.35 -0.55, 107.44 1.8, 118.69 5.45 C129.94 9.09, 141.3 15.82, 149.53 22.96 C157.77 30.1, 163.86 38.98, 168.08 48.26 C172.3 57.55, 175.33 68.76, 174.85 78.66 C174.36 88.55, 170.88 98.65, 165.18 107.62 C159.48 116.59, 149.85 126.07, 140.67 132.48 C131.5 138.89, 121.22 143.46, 110.13 146.07 C99.04 148.69, 85.94 149.73, 74.14 148.17 C62.34 146.61, 49.27 142.31, 39.35 136.7 C29.43 131.08, 20.97 122.98, 14.64 114.49 C8.31 105.99, 3.17 95.8, 1.37 85.73 C-0.42 75.65, 0.72 63.6, 3.87 54.03 C7.02 44.46, 12.94 35.89, 20.28 28.33 C27.61 20.78, 36.84 13.4, 47.89 8.72 C58.94 4.03, 79.55 1.35, 86.57 0.24 C93.59 -0.87, 89.99 0.77, 89.99 2.06 M80.72 -0.06 C91.89 -2.25, 106.08 -0.65, 116.93 2.86 C127.78 6.36, 137.26 13.55, 145.8 20.95 C154.35 28.35, 163.75 38.01, 168.2 47.26 C172.65 56.51, 172.81 66.41, 172.5 76.43 C172.18 86.44, 170.92 98.26, 166.31 107.35 C161.7 116.44, 153.77 124.69, 144.83 130.97 C135.89 137.24, 124.25 142.23, 112.67 145.01 C101.09 147.79, 87.05 149.02, 75.34 147.65 C63.64 146.28, 52.39 141.72, 42.45 136.78 C32.51 131.84, 22.6 126.1, 15.69 117.99 C8.79 109.87, 3.14 98.19, 1.01 88.09 C-1.13 77.99, -0.13 67.13, 2.89 57.39 C5.91 47.66, 12.12 37.72, 19.13 29.69 C26.14 21.67, 34.7 14.4, 44.95 9.24 C55.19 4.09, 74.82 0.12, 80.58 -1.23 C86.35 -2.58, 79.41 -0.09, 79.55 1.15" stroke="#000000" stroke-width="1" fill="none"></path></g><g transform="translate(1904.6749702296415 701.3205448016022) rotate(0 19.639991760253906 12.5)"><text x="19.639991760253906" y="0" font-family="Virgil, Segoe UI Emoji" font-size="20px" fill="#1e1e1e" text-anchor="middle" style="white-space: pre;" direction="ltr" dominant-baseline="text-before-edge">LLM</text></g><g stroke-opacity="0.8" fill-opacity="0.8" stroke-linecap="round" transform="translate(288.66668701171875 248.16668701171875) rotate(0 49.4666748046875 61.833343505859375)"><path d="M-1.93 0.85 L97.67 0.71 L99.92 125.08 L-0.99 124.05" stroke="none" stroke-width="0" fill="white"></path><path d="M0 0 C31.87 0.77, 62.89 1.02, 98.93 0 M0 0 C19.97 -0.39, 39.12 0.16, 98.93 0 M98.93 0 C98.1 34.85, 99.55 74.31, 98.93 123.67 M98.93 0 C99.5 35.46, 99.38 70.75, 98.93 123.67 M98.93 123.67 C72.78 126.05, 47.08 124.62, 0 123.67 M98.93 123.67 C68.78 122.6, 38.02 122.4, 0 123.67 M0 123.67 C0.1 90.56, 1.16 61.27, 0 0 M0 123.67 C-0.05 96.78, -0.32 69.5, 0 0" stroke="#000000" stroke-width="1" fill="none"></path></g><g stroke-linecap="round" transform="translate(300.38247841282896 255.97721461245885) rotate(0 36.44912880345396 10.41403680098685)"><path d="M-1.26 0.71 L73.88 1.41 L71.91 21.22 L-0.68 22.38" stroke="none" stroke-width="0" fill="white"></path><path d="M0 0 C18.48 0.52, 36.83 -0.9, 72.9 0 M0 0 C17.65 0.31, 36.57 0.07, 72.9 0 M72.9 0 C74.2 9.32, 72.54 14.98, 72.9 20.83 M72.9 0 C73.35 5.31, 72.52 9.7, 72.9 20.83 M72.9 20.83 C43.86 21.67, 18.65 20.47, 0 20.83 M72.9 20.83 C54.75 19.87, 38.03 20.98, 0 20.83 M0 20.83 C1.68 17.2, -1.64 10.3, 0 0 M0 20.83 C-0.63 14.22, -0.87 6.74, 0 0" stroke="#000000" stroke-width="1" fill="none"></path></g><g stroke-linecap="round" transform="translate(300.38247841282896 310.6509078176398) rotate(0 36.44912880345396 10.41403680098685)"><path d="M0.98 1.41 L71.91 0.39 L72.22 22.38 L-0.77 21.61" stroke="none" stroke-width="0" fill="white"></path><path d="M0 0 C21.48 -0.99, 45.94 -0.09, 72.9 0 M0 0 C15.45 -0.33, 31.61 0.17, 72.9 0 M72.9 0 C72.69 4.98, 71.31 10.64, 72.9 20.83 M72.9 0 C72.5 8.11, 73.7 14.06, 72.9 20.83 M72.9 20.83 C45.03 19.95, 15.76 20.6, 0 20.83 M72.9 20.83 C53.81 20.84, 34.94 20.7, 0 20.83 M0 20.83 C-1.75 15.23, 0.79 10.02, 0 0 M0 20.83 C-0.82 13.91, -0.48 6.51, 0 0" stroke="#000000" stroke-width="1" fill="none"></path></g><g stroke-linecap="round" transform="translate(300.38247841282896 284.6158158151727) rotate(0 36.44912880345396 10.41403680098685)"><path d="M-0.99 0.39 L72.22 1.56 L72.13 21.61 L1.33 20.19" stroke="none" stroke-width="0" fill="white"></path><path d="M0 0 C23.38 0.43, 46.97 -1.07, 72.9 0 M0 0 C20.06 0.34, 38.31 1.07, 72.9 0 M72.9 0 C71.14 9.18, 73.89 17.15, 72.9 20.83 M72.9 0 C73.52 7.45, 73.63 15.13, 72.9 20.83 M72.9 20.83 C48.88 20.16, 26.54 18.62, 0 20.83 M72.9 20.83 C55.06 21.52, 37.85 22.05, 0 20.83 M0 20.83 C1.13 12.3, 1.21 4.16, 0 0 M0 20.83 C-0.43 13.58, 0.69 6.31, 0 0" stroke="#000000" stroke-width="1" fill="none"></path></g><g stroke-linecap="round" transform="translate(300.38247841282896 339.28950902035365) rotate(0 36.44912880345396 10.41403680098685)"><path d="M-0.68 1.56 L72.13 0.78 L74.22 20.19 L0.01 22.41" stroke="none" stroke-width="0" fill="white"></path><path d="M0 0 C17.43 -1.4, 37.68 -0.2, 72.9 0 M0 0 C17.08 0.71, 36.47 -0.13, 72.9 0 M72.9 0 C73.75 7.1, 74.43 11.85, 72.9 20.83 M72.9 0 C73.88 6.95, 73.17 15.82, 72.9 20.83 M72.9 20.83 C53.68 18.86, 34.94 19.87, 0 20.83 M72.9 20.83 C46.94 21.95, 22.89 20.29, 0 20.83 M0 20.83 C0.95 13.81, 1.21 7.75, 0 0 M0 20.83 C0.62 14.4, -0.36 6.76, 0 0" stroke="#000000" stroke-width="1" fill="none"></path></g><g transform="translate(180.3333740234375 287.0000305175781) rotate(0 21.47997283935547 12.5)"><text x="0" y="0" font-family="Virgil, Segoe UI Emoji" font-size="20px" fill="#1e1e1e" text-anchor="start" style="white-space: pre;" direction="ltr" dominant-baseline="text-before-edge">Split</text></g><g stroke-linecap="round" transform="translate(489.6666259765625 451.83331298828125) rotate(0 77.33331298828125 39.16668701171875)"><path d="M19.58 0 C40.6 -4.23, 69.16 1.31, 135.08 0 M19.58 0 C56.17 3.22, 93.74 2.18, 135.08 0 M135.08 0 C150.16 1.8, 150.75 3.76, 154.67 19.58 M135.08 0 C151.49 0.36, 152.41 3.56, 154.67 19.58 M154.67 19.58 C151.03 25.41, 153.51 41.89, 154.67 58.75 M154.67 19.58 C152.69 31.75, 153.84 39.3, 154.67 58.75 M154.67 58.75 C153.56 73.78, 147.4 76.14, 135.08 78.33 M154.67 58.75 C154.79 67.44, 148.07 73.83, 135.08 78.33 M135.08 78.33 C106.78 81.1, 71.32 81.03, 19.58 78.33 M135.08 78.33 C92.83 76.32, 51.06 78.26, 19.58 78.33 M19.58 78.33 C4.02 79.18, 1.36 73.22, 0 58.75 M19.58 78.33 C3.17 81.01, 1.3 67.22, 0 58.75 M0 58.75 C-1.2 47.71, 2.47 36.3, 0 19.58 M0 58.75 C1.82 49.89, -1.33 39.54, 0 19.58 M0 19.58 C-0.91 10.17, 7.4 -0.4, 19.58 0 M0 19.58 C-1.68 10.54, 3.7 -1.95, 19.58 0" stroke="#000000" stroke-width="2" fill="none"></path></g><g transform="translate(507.33331298828125 449) rotate(0 57.652244567871094 36)"><text x="0" y="0" font-family="Virgil, Segoe UI Emoji" font-size="28px" fill="#000000" text-anchor="start" style="white-space: pre;" direction="ltr" dominant-baseline="text-before-edge">Embeding</text><text x="0" y="36" font-family="Virgil, Segoe UI Emoji" font-size="28px" fill="#000000" text-anchor="start" style="white-space: pre;" direction="ltr" dominant-baseline="text-before-edge">model</text></g><g mask="url(#mask-nUcQYEYrj5ZdiaopvLbP1)" stroke-linecap="round"><g transform="translate(328.9999694824219 377.66668701171875) rotate(0 76 54)"><path d="M0 0 C0 6.36, 0 12.72, 0 27.33 M0 27.33 C0 56.15, 0 84.97, 0 107.33 M0 107.33 C60.16 107.6, 120.31 107.86, 152 108" stroke="#000000" stroke-width="2.5" fill="none" stroke-dasharray="8 10"></path></g><g transform="translate(328.9999694824219 377.66668701171875) rotate(0 76 54)"><path d="M123.76 118.14 C130.33 115.78, 136.9 113.42, 152 108" stroke="#000000" stroke-width="2.5" fill="none"></path></g><g transform="translate(328.9999694824219 377.66668701171875) rotate(0 76 54)"><path d="M123.85 97.62 C130.4 100.03, 136.95 102.45, 152 108" stroke="#000000" stroke-width="2.5" fill="none"></path></g></g><mask id="mask-nUcQYEYrj5ZdiaopvLbP1"><rect x="0" y="0" fill="#fff" width="580.9999694824219" height="585.6666870117188"></rect><rect x="287.82003021240234" y="432.5000305175781" fill="#000" width="82.35990905761719" height="25" opacity="1"></rect></mask><g transform="translate(287.82003021240234 432.5000305175781) rotate(0 117.17993927001953 -0.833343505859375)"><text x="41.179954528808594" y="0" font-family="Virgil, Segoe UI Emoji" font-size="20px" fill="#1e1e1e" text-anchor="middle" style="white-space: pre;" direction="ltr" dominant-baseline="text-before-edge">Embeding</text></g><g mask="url(#mask-zejAJ2gJBPk3XJ5Gw9Pzt)" stroke-linecap="round"><g transform="translate(558.9999389648438 650.9999389648438) rotate(0 1.000030517578125 -56.666656494140625)"><path d="M0 0 C0.33 -18.89, 1.67 -94.44, 2 -113.33 M0 0 C0.33 -18.89, 1.67 -94.44, 2 -113.33" stroke="#3bc9db" stroke-width="2" fill="none"></path></g><g transform="translate(558.9999389648438 650.9999389648438) rotate(0 1.000030517578125 -56.666656494140625)"><path d="M11.76 -84.97 C9.46 -91.67, 7.15 -98.37, 2 -113.33 M11.76 -84.97 C9.68 -91.01, 7.6 -97.06, 2 -113.33" stroke="#3bc9db" stroke-width="2" fill="none"></path></g><g transform="translate(558.9999389648438 650.9999389648438) rotate(0 1.000030517578125 -56.666656494140625)"><path d="M-8.76 -85.33 C-6.21 -91.95, -3.67 -98.56, 2 -113.33 M-8.76 -85.33 C-6.46 -91.3, -4.17 -97.27, 2 -113.33" stroke="#3bc9db" stroke-width="2" fill="none"></path></g></g><mask id="mask-zejAJ2gJBPk3XJ5Gw9Pzt"><rect x="0" y="0" fill="#fff" width="661" height="864.333251953125"></rect><rect x="518.8200149536133" y="581.8332824707031" fill="#000" width="82.35990905761719" height="25" opacity="1"></rect></mask><g transform="translate(518.8200149536133 581.8332824707031) rotate(0 41.179954528808594 12.5)"><text x="41.179954528808594" y="0" font-family="Virgil, Segoe UI Emoji" font-size="20px" fill="#3bc9db" text-anchor="middle" style="white-space: pre;" direction="ltr" dominant-baseline="text-before-edge">Embeding</text></g><g stroke-linecap="round"><g transform="translate(563 442.6666259765625) rotate(0 111 -78)"><path d="M0 0 C0.4 -46.27, 0.8 -92.54, 1.33 -154.67 M1.33 -154.67 C24.32 -154.97, 47.31 -155.28, 102 -156 M102 -156 C126.8 -156, 151.6 -156, 222 -156" stroke="#000000" stroke-width="2.5" fill="none" stroke-dasharray="8 10"></path></g><g transform="translate(563 442.6666259765625) rotate(0 111 -78)"><path d="M193.81 -145.74 C202.24 -148.81, 210.68 -151.88, 222 -156" stroke="#000000" stroke-width="2.5" fill="none"></path></g><g transform="translate(563 442.6666259765625) rotate(0 111 -78)"><path d="M193.81 -166.26 C202.24 -163.19, 210.68 -160.12, 222 -156" stroke="#000000" stroke-width="2.5" fill="none"></path></g></g><mask></mask><g transform="translate(577.6666870117188 251.99996948242188) rotate(0 95.08990478515625 12.5)"><text x="0" y="0" font-family="Virgil, Segoe UI Emoji" font-size="20px" fill="#1e1e1e" text-anchor="start" style="white-space: pre;" direction="ltr" dominant-baseline="text-before-edge">Vector Store Index</text></g><g stroke-linecap="round" transform="translate(1126.2356262207031 312.4564971923828) rotate(0 117.09774780273438 6.5435028076171875)"><path d="M3.27 0 C86.17 -0.77, 168.31 0.43, 230.92 0 M3.27 0 C85.6 0.3, 167.29 0.41, 230.92 0 M230.92 0 C234.03 0.48, 233.81 1.37, 234.2 3.27 M230.92 0 C232.74 -0.67, 234.58 0.03, 234.2 3.27 M234.2 3.27 C234.41 4.47, 234.39 6.44, 234.2 9.82 M234.2 3.27 C234.05 4.91, 234.13 6.62, 234.2 9.82 M234.2 9.82 C234.65 11.41, 232.96 12.3, 230.92 13.09 M234.2 9.82 C233.82 11.56, 232.63 13.29, 230.92 13.09 M230.92 13.09 C163.08 13.97, 94.26 14.72, 3.27 13.09 M230.92 13.09 C171.49 13.5, 112.89 13.49, 3.27 13.09 M3.27 13.09 C1.36 13.11, 0.05 11.42, 0 9.82 M3.27 13.09 C1.6 12.11, 0.42 12.41, 0 9.82 M0 9.82 C-0.16 7.94, -0.31 6.18, 0 3.27 M0 9.82 C-0.1 8.07, 0.07 6.03, 0 3.27 M0 3.27 C0.47 0.54, 1.44 -0.13, 3.27 0 M0 3.27 C0.52 1.7, 0.74 -0.58, 3.27 0" stroke="#000000" stroke-width="1" fill="none"></path></g><g transform="translate(1137.333251953125 249.33331298828125) rotate(0 108.8798828125 12.5)"><text x="0" y="0" font-family="Virgil, Segoe UI Emoji" font-size="20px" fill="#e03131" text-anchor="start" style="white-space: pre;" direction="ltr" dominant-baseline="text-before-edge">Top n relevant chunks</text></g><g mask="url(#mask-vQ1SdH7Ll4fvV2gSNFeq5)" stroke-linecap="round"><g transform="translate(649 497.33331298828125) rotate(0 90.00003051757812 -75.6666259765625)"><path d="M0 0 C17.39 -0.18, 34.78 -0.35, 65.33 -0.67 M0 0 C14.78 -0.15, 29.56 -0.3, 65.33 -0.67 M65.33 -0.67 C88.34 -0.4, 111.34 -0.13, 180 0.67 M65.33 -0.67 C90.68 -0.37, 116.03 -0.08, 180 0.67 M180 0.67 C180 -54.38, 180 -109.42, 180 -152 M180 0.67 C180 -57.46, 180 -115.59, 180 -152" stroke="#3bc9db" stroke-width="2" fill="none"></path></g><g transform="translate(649 497.33331298828125) rotate(0 90.00003051757812 -75.6666259765625)"><path d="M190.26 -123.81 C187.53 -131.31, 184.8 -138.82, 180 -152 M190.26 -123.81 C187.94 -130.19, 185.62 -136.57, 180 -152" stroke="#3bc9db" stroke-width="2" fill="none"></path></g><g transform="translate(649 497.33331298828125) rotate(0 90.00003051757812 -75.6666259765625)"><path d="M169.74 -123.81 C172.47 -131.31, 175.2 -138.82, 180 -152 M169.74 -123.81 C172.06 -130.19, 174.38 -136.57, 180 -152" stroke="#3bc9db" stroke-width="2" fill="none"></path></g></g><mask id="mask-vQ1SdH7Ll4fvV2gSNFeq5"><rect x="0" y="0" fill="#fff" width="929.0000610351562" height="749.9999389648438"></rect><rect x="687.3168106079102" y="484.83331298828125" fill="#000" width="168.69981384277344" height="25" opacity="1"></rect></mask><g transform="translate(687.3168106079102 484.83331298828125) rotate(0 51.68321990966797 -63.1666259765625)"><text x="84.34990692138672" y="0" font-family="Virgil, Segoe UI Emoji" font-size="20px" fill="#3bc9db" text-anchor="middle" style="white-space: pre;" direction="ltr" dominant-baseline="text-before-edge">Embdeding Search</text></g><g stroke-linecap="round"><g transform="translate(334.33331298828125 690.3333129882812) rotate(0 75 0)"><path d="M0 0 C25 0, 125 0, 150 0 M0 0 C25 0, 125 0, 150 0" stroke="#3bc9db" stroke-width="2" fill="none"></path></g><g transform="translate(334.33331298828125 690.3333129882812) rotate(0 75 0)"><path d="M121.81 10.26 C129.41 7.49, 137.01 4.73, 150 0 M121.81 10.26 C130.43 7.12, 139.04 3.99, 150 0" stroke="#3bc9db" stroke-width="2" fill="none"></path></g><g transform="translate(334.33331298828125 690.3333129882812) rotate(0 75 0)"><path d="M121.81 -10.26 C129.41 -7.49, 137.01 -4.73, 150 0 M121.81 -10.26 C130.43 -7.12, 139.04 -3.99, 150 0" stroke="#3bc9db" stroke-width="2" fill="none"></path></g></g><mask></mask><g transform="translate(810.6666870117188 740.3333129882812) rotate(0 47.189971923828125 12.5)"><text x="0" y="0" font-family="Virgil, Segoe UI Emoji" font-size="20px" fill="#1e1e1e" text-anchor="start" style="white-space: pre;" direction="ltr" dominant-baseline="text-before-edge">原始Query</text></g><g transform="translate(568.3333129882812 409.33331298828125) rotate(0 45.33995056152344 12.5)"><text x="0" y="0" font-family="Virgil, Segoe UI Emoji" font-size="20px" fill="#1e1e1e" text-anchor="start" style="white-space: pre;" direction="ltr" dominant-baseline="text-before-edge">embedings</text></g><g stroke-linecap="round"><g transform="translate(1698.333251953125 713) rotate(0 68.33331298828125 0.33331298828125)"><path d="M0 0 C22.78 0.11, 113.89 0.56, 136.67 0.67 M0 0 C22.78 0.11, 113.89 0.56, 136.67 0.67" stroke="#000000" stroke-width="2" fill="none"></path></g><g transform="translate(1698.333251953125 713) rotate(0 68.33331298828125 0.33331298828125)"><path d="M108.43 10.79 C119.31 6.89, 130.19 2.99, 136.67 0.67 M108.43 10.79 C119.33 6.88, 130.23 2.98, 136.67 0.67" stroke="#000000" stroke-width="2" fill="none"></path></g><g transform="translate(1698.333251953125 713) rotate(0 68.33331298828125 0.33331298828125)"><path d="M108.53 -9.73 C119.37 -5.73, 130.21 -1.72, 136.67 0.67 M108.53 -9.73 C119.39 -5.72, 130.25 -1.7, 136.67 0.67" stroke="#000000" stroke-width="2" fill="none"></path></g></g><mask></mask><g stroke-linecap="round"><g transform="translate(126.33334350585938 318.33331298828125) rotate(0 75 0)"><path d="M0 0 C25 0, 125 0, 150 0" stroke="#000000" stroke-width="2.5" fill="none" stroke-dasharray="8 10"></path></g><g transform="translate(126.33334350585938 318.33331298828125) rotate(0 75 0)"><path d="M121.81 10.26 C132.93 6.21, 144.05 2.17, 150 0" stroke="#000000" stroke-width="2.5" fill="none"></path></g><g transform="translate(126.33334350585938 318.33331298828125) rotate(0 75 0)"><path d="M121.81 -10.26 C132.93 -6.21, 144.05 -2.17, 150 0" stroke="#000000" stroke-width="2.5" fill="none"></path></g></g><mask></mask><g stroke-linecap="round"><g transform="translate(1931 637) rotate(0 0.33331298828125 -57.666656494140625)"><path d="M0 0 C0.11 -19.22, 0.56 -96.11, 0.67 -115.33 M0 0 C0.11 -19.22, 0.56 -96.11, 0.67 -115.33" stroke="#000000" stroke-width="2" fill="none"></path></g><g transform="translate(1931 637) rotate(0 0.33331298828125 -57.666656494140625)"><path d="M10.76 -87.08 C8.48 -93.47, 6.2 -99.86, 0.67 -115.33 M10.76 -87.08 C7.06 -97.45, 3.36 -107.81, 0.67 -115.33" stroke="#000000" stroke-width="2" fill="none"></path></g><g transform="translate(1931 637) rotate(0 0.33331298828125 -57.666656494140625)"><path d="M-9.76 -87.2 C-7.4 -93.56, -5.04 -99.92, 0.67 -115.33 M-9.76 -87.2 C-5.93 -97.52, -2.11 -107.84, 0.67 -115.33" stroke="#000000" stroke-width="2" fill="none"></path></g></g><mask></mask><g stroke-linecap="round" transform="translate(1833.9998779296875 417.33331298828125) rotate(0 100 50)"><path d="M25 0 C83.73 0, 142.47 0, 175 0 C191.67 0, 200 8.33, 200 25 C200 40.59, 200 56.18, 200 75 C200 91.67, 191.67 100, 175 100 C121.76 100, 68.52 100, 25 100 C8.33 100, 0 91.67, 0 75 C0 55.98, 0 36.96, 0 25 C0 8.33, 8.33 0, 25 0" stroke="none" stroke-width="0" fill="#b2f2bb"></path><path d="M25 0 C83.55 0, 142.1 0, 175 0 M25 0 C62.48 0, 99.97 0, 175 0 M175 0 C191.67 0, 200 8.33, 200 25 M175 0 C191.67 0, 200 8.33, 200 25 M200 25 C200 36.62, 200 48.24, 200 75 M200 25 C200 39.08, 200 53.17, 200 75 M200 75 C200 91.67, 191.67 100, 175 100 M200 75 C200 91.67, 191.67 100, 175 100 M175 100 C115.94 100, 56.88 100, 25 100 M175 100 C121 100, 66.99 100, 25 100 M25 100 C8.33 100, 0 91.67, 0 75 M25 100 C8.33 100, 0 91.67, 0 75 M0 75 C0 58.28, 0 41.56, 0 25 M0 75 C0 55.14, 0 35.28, 0 25 M0 25 C0 8.33, 8.33 0, 25 0 M0 25 C0 8.33, 8.33 0, 25 0" stroke="#000000" stroke-width="2" fill="none"></path></g><g transform="translate(1895.5598831176758 457.33331298828125) rotate(0 32.629966735839844 12.5)"><text x="32.629966735839844" y="0" font-family="Virgil, Segoe UI Emoji" font-size="20px" fill="#000000" text-anchor="middle" style="white-space: pre;" direction="ltr" dominant-baseline="text-before-edge">answer</text></g><g stroke-linecap="round"><g transform="translate(977.9029610752393 61.02922320223962) rotate(0 47.15391431487183 10.453164183993891)" fill-rule="evenodd"><path d="M0 0 C0 0, 0 0, 0 0 M0 0 C0 0, 0 0, 0 0 M0.39 5.64 C6.77 1.45, 10.78 -5.88, 13.52 -9.45 M0.39 5.64 C4.85 0.26, 11.02 -5.13, 13.52 -9.45 M0.13 12.04 C7.36 3.62, 14.92 -6.73, 22.44 -13.62 M0.13 12.04 C5.56 6.65, 8.91 1.08, 22.44 -13.62 M0.53 17.68 C9.48 10.53, 13.48 3.27, 32.02 -18.54 M0.53 17.68 C8.05 10.24, 13.63 2.21, 32.02 -18.54 M0.92 23.33 C15.11 8.4, 25.21 -7.36, 37.66 -18.94 M0.92 23.33 C11.65 12.4, 21.24 0.7, 37.66 -18.94 M3.29 26.71 C14.22 14.19, 23.27 6.24, 43.3 -19.33 M3.29 26.71 C16.4 11.3, 29.8 -3.52, 43.3 -19.33 M4.99 30.84 C20.71 10.92, 36.19 -5.49, 47.64 -18.22 M4.99 30.84 C19.11 12.84, 36.42 -4.86, 47.64 -18.22 M8.67 32.71 C21.62 19.92, 32.24 9.36, 51.97 -17.1 M8.67 32.71 C16.42 21.95, 24.86 13.05, 51.97 -17.1 M11.69 35.33 C23.23 19.57, 36.09 4.74, 56.95 -16.74 M11.69 35.33 C29.1 14.87, 46.32 -3.88, 56.95 -16.74 M16.02 36.45 C30.46 18.63, 44.81 3.27, 61.94 -16.38 M16.02 36.45 C33.48 16.04, 50.18 -3.14, 61.94 -16.38 M19.69 38.32 C37.78 19.2, 55.48 -3.38, 66.93 -16.02 M19.69 38.32 C38.26 18.26, 57.43 -3.95, 66.93 -16.02 M23.37 40.19 C38.82 20.6, 56.78 3.08, 71.91 -15.66 M23.37 40.19 C33.47 26.69, 45.32 14.68, 71.91 -15.66 M28.35 40.55 C49.06 19.05, 67.95 -5.66, 76.25 -14.55 M28.35 40.55 C39.29 27.46, 50.59 15.44, 76.25 -14.55 M32.68 41.66 C44.65 27.26, 59.67 11.2, 80.58 -13.43 M32.68 41.66 C45.12 26.75, 56.35 13.57, 80.58 -13.43 M37.67 42.02 C53.44 27.84, 65.32 9.49, 84.25 -11.56 M37.67 42.02 C51.82 24.65, 66.63 9.47, 84.25 -11.56 M42.66 42.38 C57.45 22.62, 73.4 5.86, 87.27 -8.94 M42.66 42.38 C58.12 23.81, 73.49 6.45, 87.27 -8.94 M48.3 41.99 C59.67 30.04, 71.3 16.13, 90.29 -6.31 M48.3 41.99 C64.38 24.08, 80.12 5.16, 90.29 -6.31 M53.94 41.59 C66.34 26.79, 80.19 13.33, 92.65 -2.93 M53.94 41.59 C66.65 26, 81.67 8.83, 92.65 -2.93 M59.59 41.2 C72.32 23.99, 88.74 8.19, 95.01 0.44 M59.59 41.2 C72.59 27.2, 86.3 11.77, 95.01 0.44 M65.89 40.05 C75.08 30.18, 84.14 17.23, 95.41 6.09 M65.89 40.05 C72.92 31.36, 82.93 21.72, 95.41 6.09 M71.53 39.65 C78.68 30.97, 85.35 22.47, 95.15 12.49 M71.53 39.65 C78.91 30.29, 86.85 20.89, 95.15 12.49 M75.86 40.77 C85.17 31.66, 91.01 25.73, 94.89 18.88 M75.86 40.77 C81.71 34.33, 86.95 28.64, 94.89 18.88" stroke="#000000" stroke-width="0.5" fill="none"></path><path d="M-0.79 0.78 C-0.82 2.81, -0.76 8.89, -0.41 12.87 C-0.05 16.86, -0.5 20.96, 1.35 24.7 C3.21 28.45, 5.79 32.69, 10.71 35.33 C15.64 37.98, 22.6 39.59, 30.91 40.55 C39.21 41.51, 52.09 42.02, 60.55 41.1 C69.01 40.19, 76.33 37.55, 81.68 35.06 C87.03 32.57, 90.48 29.81, 92.66 26.18 C94.83 22.55, 94.64 18.11, 94.73 13.29 C94.81 8.47, 95.42 1.92, 93.15 -2.74 C90.89 -7.4, 87 -12.07, 81.13 -14.69 C75.26 -17.31, 66.2 -17.73, 57.95 -18.48 C49.7 -19.23, 39.4 -20.18, 31.63 -19.2 C23.86 -18.21, 16.42 -15.76, 11.34 -12.59 C6.26 -9.42, 3.02 -2.28, 1.17 -0.15 M1 0.15 C1.38 1.75, 2 6.71, 1.98 10.99 C1.96 15.28, -0.56 21.58, 0.87 25.84 C2.3 30.11, 5.28 34.02, 10.55 36.58 C15.83 39.14, 24.06 40.52, 32.53 41.19 C41 41.86, 53.08 41.28, 61.35 40.61 C69.62 39.93, 77.13 39.67, 82.15 37.15 C87.17 34.62, 89.61 29.59, 91.47 25.46 C93.32 21.33, 92.83 17.22, 93.27 12.37 C93.72 7.53, 96.03 0.81, 94.12 -3.6 C92.22 -8.01, 87.58 -11.61, 81.85 -14.1 C76.12 -16.59, 68.08 -17.52, 59.73 -18.54 C51.39 -19.57, 39.89 -21.15, 31.78 -20.27 C23.66 -19.38, 16.6 -16.46, 11.05 -13.22 C5.49 -9.97, 0.06 -3.25, -1.54 -0.78" stroke="#000000" stroke-width="1" fill="none"></path></g></g><mask></mask><g stroke-linecap="round" transform="translate(986.2188668073329 44.251127654708945) rotate(0 38.43510213802642 14.698976738338711)"><path d="M49.41 0.21 C57.02 0.69, 66.39 3.37, 70.92 5.9 C75.45 8.42, 77.71 12.27, 76.59 15.35 C75.48 18.43, 70.06 22.12, 64.22 24.39 C58.39 26.65, 49.77 28.71, 41.61 28.93 C33.44 29.14, 22.13 27.54, 15.25 25.69 C8.36 23.84, 2.12 20.59, 0.32 17.82 C-1.49 15.05, 0.53 11.93, 4.41 9.06 C8.29 6.18, 14.4 1.89, 23.58 0.6 C32.76 -0.7, 52.43 0.51, 59.49 1.27 C66.56 2.02, 66.31 4.73, 65.98 5.13 M38.07 0.25 C46.12 -0.16, 57.31 1.31, 63.51 3.09 C69.7 4.86, 73.85 7.75, 75.24 10.88 C76.63 14.01, 75.49 18.79, 71.84 21.89 C68.2 24.98, 60.74 28.25, 53.36 29.44 C45.97 30.63, 35.32 30.33, 27.55 29 C19.79 27.68, 11.32 24.3, 6.77 21.51 C2.23 18.73, -0.91 15.45, 0.27 12.3 C1.45 9.15, 7.59 4.43, 13.86 2.6 C20.12 0.76, 33.82 1.56, 37.85 1.28 C41.89 0.99, 38.33 0.95, 38.05 0.88" stroke="none" stroke-width="0" fill="#ffff"></path><path d="M47.16 -0.53 C55.01 -0.11, 64.35 2.23, 69.44 4.84 C74.52 7.45, 78.21 11.87, 77.69 15.13 C77.16 18.4, 72.12 22, 66.29 24.42 C60.45 26.83, 50.66 29.14, 42.68 29.63 C34.69 30.12, 25.3 29.04, 18.37 27.38 C11.43 25.72, 3.74 22.87, 1.08 19.69 C-1.59 16.5, -1.02 11.3, 2.37 8.27 C5.76 5.24, 13.18 2.61, 21.42 1.5 C29.66 0.4, 46.01 1.36, 51.79 1.62 C57.57 1.89, 56.27 2.94, 56.09 3.1 M40.91 0.34 C48.76 0.21, 60.33 2.14, 66.53 4.5 C72.73 6.86, 77.33 11.19, 78.12 14.51 C78.91 17.82, 76.35 22.11, 71.28 24.37 C66.2 26.63, 56.11 27.71, 47.69 28.07 C39.27 28.42, 28.21 27.57, 20.77 26.5 C13.32 25.44, 6.24 24.54, 3.03 21.68 C-0.18 18.83, -0.95 12.42, 1.51 9.37 C3.97 6.32, 10.94 5.07, 17.81 3.4 C24.68 1.73, 38.55 -0.19, 42.74 -0.64 C46.93 -1.1, 42.96 0.41, 42.95 0.67" stroke="#000000" stroke-width="1" fill="none"></path></g><g stroke-linecap="round"><g transform="translate(978.318812007547 94.62390240203575) rotate(0 46.4244095434135 19.137070613829025)" fill-rule="evenodd"><path d="M0 0 C0 0, 0 0, 0 0 M0 0 C0 0, 0 0, 0 0 M0.39 5.64 C1.56 4.48, 2.2 4.16, 3.67 1.87 M0.39 5.64 C1.57 4.18, 2.83 2.77, 3.67 1.87 M0.13 12.04 C1.3 10.46, 4.01 6.75, 7.35 3.74 M0.13 12.04 C1.98 10.76, 3.61 8.14, 7.35 3.74 M0.53 17.68 C5.02 14.64, 8.82 8.61, 10.37 6.36 M0.53 17.68 C3.37 15.03, 5.99 10.82, 10.37 6.36 M2.89 21.06 C6.52 19.16, 9.76 15.25, 14.04 8.23 M2.89 21.06 C6.98 16.82, 10.65 11.78, 14.04 8.23 M3.29 26.71 C7.24 19.12, 14.84 11.83, 18.37 9.35 M3.29 26.71 C9.93 19.86, 14.43 12.81, 18.37 9.35 M6.3 29.33 C11.89 21.34, 16.32 19.11, 22.71 10.46 M6.3 29.33 C11.17 24.96, 15.62 19.51, 22.71 10.46 M8.67 32.71 C15.18 24.19, 19.72 16.61, 26.38 12.33 M8.67 32.71 C15.5 25.25, 20.31 18.4, 26.38 12.33 M13 33.82 C17.81 28.08, 20.97 22.8, 31.37 12.69 M13 33.82 C18.17 28.05, 22.66 22.15, 31.37 12.69 M16.67 35.69 C21.12 30.91, 25.1 24.13, 36.35 13.05 M16.67 35.69 C21.94 28.99, 28.94 22.05, 36.35 13.05 M21 36.81 C25.07 29.69, 33.83 24.64, 41.34 13.41 M21 36.81 C24.85 30.66, 30.08 25.83, 41.34 13.41 M24.68 38.68 C32.65 30.59, 36.31 25.27, 46.33 13.77 M24.68 38.68 C30.32 33.54, 35.22 27.47, 46.33 13.77 M29.67 39.04 C35.85 33.07, 38.79 28.4, 51.32 14.13 M29.67 39.04 C37.36 28.38, 47.23 19.2, 51.32 14.13 M34.65 39.4 C42.71 31.4, 48.14 20.91, 56.3 14.49 M34.65 39.4 C40.98 33.14, 48.03 24.98, 56.3 14.49 M39.64 39.76 C44.89 33.13, 49.72 26.99, 62.6 13.34 M39.64 39.76 C47.98 30.27, 54.57 21.36, 62.6 13.34 M44.63 40.12 C51.33 31.64, 56.77 23.39, 69.56 11.44 M44.63 40.12 C52.96 30.46, 61.93 20.92, 69.56 11.44 M49.61 40.48 C58.9 29.01, 69.57 17.47, 75.86 10.29 M49.61 40.48 C56.17 32.02, 63.68 24.29, 75.86 10.29 M55.26 40.08 C63.77 26.9, 74.78 18.05, 81.5 9.9 M55.26 40.08 C59.91 33.1, 65.27 27.99, 81.5 9.9 M60.9 39.69 C68.45 29.66, 79.48 21.25, 93.7 1.95 M60.9 39.69 C69.74 28.47, 80.38 17.3, 93.7 1.95 M66.54 39.29 C70.55 30.69, 79.12 27.63, 93.44 8.35 M66.54 39.29 C74.92 28.74, 84.49 17.85, 93.44 8.35 M73.5 37.39 C79.98 28.23, 86.74 20.12, 93.84 13.99 M73.5 37.39 C80.48 31.32, 85.49 23.43, 93.84 13.99 M81.11 34.73 C84.37 30.13, 89.56 24.69, 92.92 21.15 M81.11 34.73 C83.82 30.28, 88.11 27.82, 92.92 21.15" stroke="#000000" stroke-width="0.5" fill="none"></path><path d="M0.53 -0.34 C0.54 1.61, -0.59 7.82, -0.57 12.17 C-0.54 16.52, -1.46 22, 0.66 25.77 C2.78 29.54, 6.75 32.78, 12.15 34.79 C17.54 36.8, 24.72 37.4, 33.02 37.84 C41.33 38.28, 54.05 37.79, 62 37.42 C69.96 37.05, 75.87 37.41, 80.75 35.62 C85.63 33.83, 89.13 30.32, 91.27 26.67 C93.41 23.02, 93.55 17.88, 93.61 13.75 C93.67 9.61, 92.3 3.75, 91.64 1.87 C90.97 -0.01, 91.6 1.58, 89.62 2.46 C87.63 3.34, 84.31 5.7, 79.73 7.15 C75.16 8.61, 69.61 10.4, 62.17 11.19 C54.73 11.98, 43.05 12.26, 35.09 11.89 C27.13 11.52, 20.39 10.92, 14.4 8.98 C8.42 7.03, 1.48 1.7, -0.81 0.22 M-0.64 -1.57 C-0.2 -0.04, 1.14 5.99, 1.74 10.19 C2.35 14.4, 1.31 19.91, 2.99 23.68 C4.66 27.44, 6.44 30.39, 11.79 32.77 C17.13 35.16, 26.46 36.85, 35.04 38 C43.62 39.15, 55.49 40.2, 63.25 39.66 C71.01 39.12, 77.08 37.03, 81.61 34.74 C86.14 32.45, 88.66 29.11, 90.45 25.92 C92.23 22.73, 92.09 19.65, 92.34 15.63 C92.59 11.6, 92.35 3.85, 91.94 1.78 C91.52 -0.29, 92.06 2.45, 89.86 3.2 C87.66 3.96, 83.81 5.11, 78.73 6.29 C73.65 7.48, 66.72 9.37, 59.35 10.29 C51.99 11.21, 41.92 12.02, 34.53 11.81 C27.14 11.6, 20.82 10.74, 15.03 9.04 C9.24 7.34, 2.34 2.94, -0.21 1.59" stroke="#000000" stroke-width="1" fill="none"></path></g></g><mask></mask><g stroke-linecap="round"><g transform="translate(978.3627484597646 126.71207700619988) rotate(0 46.4244095434135 18.599246808907367)" fill-rule="evenodd"><path d="M0 0 C0 0, 0 0, 0 0 M0 0 C0 0, 0 0, 0 0 M0.39 5.64 C1.59 4.88, 2.76 3.55, 3.67 1.87 M0.39 5.64 C1.63 4.2, 2.63 2.82, 3.67 1.87 M0.13 12.04 C1.37 9.67, 2.57 7.37, 7.35 3.74 M0.13 12.04 C2.32 9.42, 4.48 7.06, 7.35 3.74 M0.53 17.68 C4.2 13.69, 6.83 10.74, 11.02 5.61 M0.53 17.68 C4.08 12.97, 7.3 9.05, 11.02 5.61 M2.89 21.06 C7.75 17.38, 11.03 11.97, 14.04 8.23 M2.89 21.06 C5.52 17.53, 10.11 13.91, 14.04 8.23 M3.94 25.95 C8.99 18.93, 15.8 16.18, 18.37 9.35 M3.94 25.95 C8.64 19.57, 15.06 13.81, 18.37 9.35 M6.3 29.33 C12.16 24.26, 18.43 14.14, 22.71 10.46 M6.3 29.33 C9.35 26.28, 13.53 20.42, 22.71 10.46 M10.63 30.45 C14.69 22.34, 22.4 17.51, 26.38 12.33 M10.63 30.45 C15.87 23.48, 21.54 18.24, 26.38 12.33 M14.31 32.31 C15.88 28.66, 20.9 24.55, 31.37 12.69 M14.31 32.31 C20.25 25.06, 27.42 17.38, 31.37 12.69 M17.98 34.18 C23.17 26.59, 30.95 20.82, 36.35 13.05 M17.98 34.18 C25.13 26.82, 30.54 20.59, 36.35 13.05 M22.32 35.3 C27.52 32.19, 29.02 27.22, 41.34 13.41 M22.32 35.3 C25.99 30.83, 30.73 25.26, 41.34 13.41 M25.33 37.92 C32.14 29.88, 41.5 19.78, 48.3 11.51 M25.33 37.92 C33.77 29.11, 40.61 18.1, 48.3 11.51 M30.32 38.28 C35.95 31.2, 43.15 25.29, 53.94 11.11 M30.32 38.28 C39.74 28.36, 48.31 18.13, 53.94 11.11 M35.31 38.64 C40.8 29.1, 49.62 21.7, 58.93 11.47 M35.31 38.64 C40.89 32.79, 44.38 27.67, 58.93 11.47 M40.3 39 C47.63 29.7, 59.6 18.86, 63.26 12.59 M40.3 39 C46.75 30.46, 54.72 22.43, 63.26 12.59 M45.28 39.36 C50.39 30.84, 57.82 25.32, 69.56 11.44 M45.28 39.36 C51.53 32.71, 56.8 27.8, 69.56 11.44 M50.27 39.72 C56.47 32.69, 60.68 27.86, 75.86 10.29 M50.27 39.72 C58.72 30.39, 67.81 21.12, 75.86 10.29 M55.91 39.33 C65.36 29.62, 71.89 21.21, 81.5 9.9 M55.91 39.33 C64.25 29.93, 73.25 19.97, 81.5 9.9 M61.56 38.93 C71.12 31.22, 77.97 20.4, 93.7 1.95 M61.56 38.93 C74.02 25.2, 84.77 11.3, 93.7 1.95 M67.2 38.54 C78.77 28.75, 88.69 15.71, 93.44 8.35 M67.2 38.54 C73.63 30.56, 80.06 24.79, 93.44 8.35 M73.5 37.39 C80.17 28, 86.78 24.08, 93.84 13.99 M73.5 37.39 C77.38 32.36, 82.99 26.91, 93.84 13.99 M81.77 33.98 C83.28 31.87, 86.21 30.07, 92.92 21.15 M81.77 33.98 C86.14 30.36, 90.11 25.74, 92.92 21.15" stroke="#000000" stroke-width="0.5" fill="none"></path><path d="M-0.77 0.27 C-1 2.34, -1.1 7.82, -0.87 12.05 C-0.65 16.27, -1.74 22.22, 0.57 25.61 C2.88 29, 7.57 30.56, 12.98 32.37 C18.39 34.18, 24.75 35.55, 33.04 36.48 C41.33 37.41, 54.79 38.52, 62.74 37.94 C70.68 37.36, 75.9 34.99, 80.71 32.99 C85.53 30.98, 89.77 28.96, 91.65 25.93 C93.52 22.89, 91.84 18.98, 91.96 14.78 C92.08 10.57, 92.61 2.81, 92.38 0.69 C92.14 -1.44, 92.59 0.86, 90.55 2.02 C88.5 3.17, 85 6.08, 80.12 7.61 C75.24 9.15, 68.72 10.42, 61.26 11.23 C53.81 12.05, 43.44 13.09, 35.4 12.52 C27.36 11.95, 18.8 9.87, 13.01 7.8 C7.22 5.74, 2.64 1.29, 0.65 0.12 M1.03 -0.63 C1.1 1.1, 0.97 6.1, 1.28 10.17 C1.58 14.25, 0.89 19.96, 2.86 23.81 C4.82 27.66, 7.69 31.13, 13.05 33.25 C18.42 35.36, 27.12 35.81, 35.06 36.5 C43 37.18, 52.96 37.63, 60.71 37.36 C68.46 37.1, 76.51 36.92, 81.56 34.89 C86.61 32.86, 89.04 28.71, 91.02 25.19 C93.01 21.67, 93.14 17.95, 93.48 13.75 C93.82 9.55, 93.43 1.85, 93.07 -0.01 C92.7 -1.88, 93.57 1.38, 91.28 2.57 C88.99 3.75, 84.27 5.79, 79.33 7.11 C74.39 8.44, 69.02 9.55, 61.63 10.52 C54.24 11.5, 43.12 13.47, 35 12.95 C26.88 12.42, 19.02 9.28, 12.91 7.36 C6.81 5.45, 0.45 2.94, -1.63 1.44" stroke="#000000" stroke-width="1" fill="none"></path></g></g><mask></mask><g transform="translate(1008.0000610351562 10) rotate(0 12.819984436035156 12.5)"><text x="0" y="0" font-family="Virgil, Segoe UI Emoji" font-size="20px" fill="#e03131" text-anchor="start" style="white-space: pre;" direction="ltr" dominant-baseline="text-before-edge">ES</text></g><g mask="url(#mask-E6Ndn8TPQ2_XhnANYq2fd)" stroke-linecap="round"><g transform="translate(330.333251953125 234.66665649414062) rotate(0 321.6666564941406 -74.00001525878906)"><path d="M0 0 C0 -57.36, 0 -114.72, 0 -145.33 M0 -145.33 C10.9 -145.51, 21.8 -145.68, 42 -146 M42 -146 C203.31 -146.54, 364.62 -147.07, 643.33 -148" stroke="#2f9e44" stroke-width="2.5" fill="none" stroke-dasharray="8 10"></path></g><g transform="translate(330.333251953125 234.66665649414062) rotate(0 321.6666564941406 -74.00001525878906)"><path d="M615.18 -137.65 C626.29 -141.73, 637.4 -145.82, 643.33 -148" stroke="#2f9e44" stroke-width="2.5" fill="none"></path></g><g transform="translate(330.333251953125 234.66665649414062) rotate(0 321.6666564941406 -74.00001525878906)"><path d="M615.11 -158.17 C626.25 -154.15, 637.39 -150.14, 643.33 -148" stroke="#2f9e44" stroke-width="2.5" fill="none"></path></g></g><mask id="mask-E6Ndn8TPQ2_XhnANYq2fd"><rect x="0" y="0" fill="#fff" width="1073.6665649414062" height="482.66668701171875"></rect><rect x="312.5632858276367" y="76.49995422363281" fill="#000" width="77.53993225097656" height="25" opacity="1"></rect></mask><g transform="translate(312.5632858276367 76.49995422363281) rotate(0 339.4366226196289 84.16668701171875)"><text x="38.76996612548828" y="0" font-family="Virgil, Segoe UI Emoji" font-size="20px" fill="#2f9e44" text-anchor="middle" style="white-space: pre;" direction="ltr" dominant-baseline="text-before-edge">Indexing</text></g><g stroke-linecap="round" transform="translate(918.3333129882812 516.6666870117188) rotate(0 85 42.5)"><path d="M21.25 0 C70.51 0, 119.78 0, 148.75 0 C162.92 0, 170 7.08, 170 21.25 C170 36.47, 170 51.69, 170 63.75 C170 77.92, 162.92 85, 148.75 85 C119 85, 89.25 85, 21.25 85 C7.08 85, 0 77.92, 0 63.75 C0 48.43, 0 33.1, 0 21.25 C0 7.08, 7.08 0, 21.25 0" stroke="none" stroke-width="0" fill="#99e9f2"></path><path d="M21.25 0 C48.89 0, 76.52 0, 148.75 0 M21.25 0 C62.21 0, 103.18 0, 148.75 0 M148.75 0 C162.92 0, 170 7.08, 170 21.25 M148.75 0 C162.92 0, 170 7.08, 170 21.25 M170 21.25 C170 37.76, 170 54.27, 170 63.75 M170 21.25 C170 30.94, 170 40.63, 170 63.75 M170 63.75 C170 77.92, 162.92 85, 148.75 85 M170 63.75 C170 77.92, 162.92 85, 148.75 85 M148.75 85 C112.58 85, 76.42 85, 21.25 85 M148.75 85 C115.41 85, 82.07 85, 21.25 85 M21.25 85 C7.08 85, 0 77.92, 0 63.75 M21.25 85 C7.08 85, 0 77.92, 0 63.75 M0 63.75 C0 50.22, 0 36.68, 0 21.25 M0 63.75 C0 51.94, 0 40.13, 0 21.25 M0 21.25 C0 7.08, 7.08 0, 21.25 0 M0 21.25 C0 7.08, 7.08 0, 21.25 0" stroke="#1971c2" stroke-width="2" fill="none"></path></g><g transform="translate(929.459878540039 538.1416809082032) rotate(0 68.9348373413086 21.25)"><text x="68.9348373413086" y="0" font-family="Virgil, Segoe UI Emoji" font-size="17px" fill="#1e1e1e" text-anchor="middle" style="white-space: pre;" direction="ltr" dominant-baseline="text-before-edge">PreProcessing</text><text x="68.9348373413086" y="21.25" font-family="Virgil, Segoe UI Emoji" font-size="17px" fill="#1e1e1e" text-anchor="middle" style="white-space: pre;" direction="ltr" dominant-baseline="text-before-edge">(Key words func)</text></g><g stroke-linecap="round"><g transform="translate(620.333251953125 692) rotate(0 148.33334350585938 -63.666656494140625)"><path d="M0 0 C51.96 0.2, 103.93 0.39, 176 0.67 M0 0 C69.37 0.26, 138.74 0.53, 176 0.67 M176 0.67 C176.18 -34.79, 176.37 -70.25, 176.67 -128 M176 0.67 C176.18 -34.92, 176.37 -70.51, 176.67 -128 M176.67 -128 C213.16 -127.88, 249.65 -127.75, 296.67 -127.59 M176.67 -128 C201.46 -127.92, 226.25 -127.83, 296.67 -127.59" stroke="#2f9e44" stroke-width="2" fill="none"></path></g><g transform="translate(620.333251953125 692) rotate(0 148.33334350585938 -63.666656494140625)"><path d="M268.44 -117.43 C276.77 -120.43, 285.11 -123.43, 296.67 -127.59 M268.44 -117.43 C279.57 -121.43, 290.69 -125.44, 296.67 -127.59" stroke="#2f9e44" stroke-width="2" fill="none"></path></g><g transform="translate(620.333251953125 692) rotate(0 148.33334350585938 -63.666656494140625)"><path d="M268.51 -137.95 C276.82 -134.89, 285.14 -131.83, 296.67 -127.59 M268.51 -137.95 C279.61 -133.87, 290.71 -129.78, 296.67 -127.59" stroke="#2f9e44" stroke-width="2" fill="none"></path></g></g><mask></mask><g stroke-linecap="round"><g transform="translate(1007.0069287426631 515.6666870117188) rotate(0 1.9965966638246755 -173.3333740234375)"><path d="M0 0 C0.67 -57.78, 3.33 -288.89, 3.99 -346.67 M0 0 C0.67 -57.78, 3.33 -288.89, 3.99 -346.67" stroke="#2f9e44" stroke-width="2" fill="none"></path></g><g transform="translate(1007.0069287426631 515.6666870117188) rotate(0 1.9965966638246755 -173.3333740234375)"><path d="M13.93 -318.36 C10.5 -328.13, 7.07 -337.91, 3.99 -346.67 M13.93 -318.36 C11.68 -324.75, 9.44 -331.15, 3.99 -346.67" stroke="#2f9e44" stroke-width="2" fill="none"></path></g><g transform="translate(1007.0069287426631 515.6666870117188) rotate(0 1.9965966638246755 -173.3333740234375)"><path d="M-6.59 -318.6 C-2.94 -328.29, 0.72 -337.98, 3.99 -346.67 M-6.59 -318.6 C-4.2 -324.94, -1.81 -331.28, 3.99 -346.67" stroke="#2f9e44" stroke-width="2" fill="none"></path></g></g><mask></mask><g transform="translate(1016.3333740234375 460.6666259765625) rotate(0 73.47991943359375 12.5)"><text x="0" y="0" font-family="Virgil, Segoe UI Emoji" font-size="20px" fill="#2f9e44" text-anchor="start" style="white-space: pre;" direction="ltr" dominant-baseline="text-before-edge">keyword search</text></g><g stroke-linecap="round" transform="translate(1202.0689392089844 98.35138702392578) rotate(0 117.09774780273438 6.543502807617195)"><path d="M3.27 0 C70.51 0.6, 137.51 -0.5, 230.92 0 M3.27 0 C87.04 -0.49, 169.99 -1.16, 230.92 0 M230.92 0 C232.34 -0.39, 235.17 1.71, 234.2 3.27 M230.92 0 C233.19 -0.61, 234.79 1.38, 234.2 3.27 M234.2 3.27 C234 5.23, 234.03 7, 234.2 9.82 M234.2 3.27 C234.27 5.64, 234.22 8, 234.2 9.82 M234.2 9.82 C233.69 12.52, 233.45 14.02, 230.92 13.09 M234.2 9.82 C233.52 12.97, 232.62 13.77, 230.92 13.09 M230.92 13.09 C182.48 13.9, 135.08 13.93, 3.27 13.09 M230.92 13.09 C176.13 13.56, 120.89 13.7, 3.27 13.09 M3.27 13.09 C1.7 13.88, -0.63 11.47, 0 9.82 M3.27 13.09 C0.14 12.78, -1.12 13.04, 0 9.82 M0 9.82 C-0.31 8.36, 0.29 6.96, 0 3.27 M0 9.82 C-0.02 7.37, 0.05 4.94, 0 3.27 M0 3.27 C-0.55 1.68, 0.34 0.23, 3.27 0 M0 3.27 C0.7 1.31, 1.02 -0.53, 3.27 0" stroke="#000000" stroke-width="1" fill="none"></path></g><g stroke-linecap="round" transform="translate(1202.4020690917969 121.35143280029297) rotate(0 117.09774780273438 6.5435028076171875)"><path d="M3.27 0 C74.24 -1.2, 146.65 -0.28, 230.92 0 M3.27 0 C91.8 -1.16, 180.65 -1.04, 230.92 0 M230.92 0 C234.08 0.62, 234.27 0.56, 234.2 3.27 M230.92 0 C233.7 0.29, 234.13 1.98, 234.2 3.27 M234.2 3.27 C233.98 5.71, 234.35 8.45, 234.2 9.82 M234.2 3.27 C234.23 5.94, 234.13 8.52, 234.2 9.82 M234.2 9.82 C234.54 12.93, 232.52 13.93, 230.92 13.09 M234.2 9.82 C233.71 12.67, 232.08 13.63, 230.92 13.09 M230.92 13.09 C141.51 12.91, 51.14 12.48, 3.27 13.09 M230.92 13.09 C146.8 12.57, 63.14 12.97, 3.27 13.09 M3.27 13.09 C0.46 12.56, -0.83 11.73, 0 9.82 M3.27 13.09 C-0.03 14.13, -1.05 12.6, 0 9.82 M0 9.82 C0.34 7.78, 0.26 6.27, 0 3.27 M0 9.82 C0.08 7.58, -0.09 5.46, 0 3.27 M0 3.27 C-0.76 1.32, 1.7 0.19, 3.27 0 M0 3.27 C-0.07 0.56, 1.71 -0.21, 3.27 0" stroke="#000000" stroke-width="1" fill="none"></path></g><g transform="translate(1213.4996948242188 58.228248596191406) rotate(0 108.8798828125 12.5)"><text x="0" y="0" font-family="Virgil, Segoe UI Emoji" font-size="20px" fill="#e03131" text-anchor="start" style="white-space: pre;" direction="ltr" dominant-baseline="text-before-edge">Top n relevant chunks</text></g><g stroke-linecap="round"><g transform="translate(884.3334350585938 291) rotate(0 118.66671752929688 0.33331298828125)"><path d="M0 0 C39.56 0.11, 197.78 0.56, 237.33 0.67 M0 0 C39.56 0.11, 197.78 0.56, 237.33 0.67" stroke="#000000" stroke-width="2" fill="none"></path></g><g transform="translate(884.3334350585938 291) rotate(0 118.66671752929688 0.33331298828125)"><path d="M209.11 10.85 C217.39 7.86, 225.67 4.87, 237.33 0.67 M209.11 10.85 C218.1 7.61, 227.08 4.37, 237.33 0.67" stroke="#000000" stroke-width="2" fill="none"></path></g><g transform="translate(884.3334350585938 291) rotate(0 118.66671752929688 0.33331298828125)"><path d="M209.17 -9.67 C217.43 -6.64, 225.69 -3.61, 237.33 0.67 M209.17 -9.67 C218.14 -6.38, 227.1 -3.09, 237.33 0.67" stroke="#000000" stroke-width="2" fill="none"></path></g></g><mask></mask><g stroke-linecap="round"><g transform="translate(1079.6665344238281 112) rotate(0 57.000030517578125 0.33331298828125)"><path d="M0 0 C19 0.11, 95 0.56, 114 0.67 M0 0 C19 0.11, 95 0.56, 114 0.67" stroke="#2f9e44" stroke-width="2" fill="none"></path></g><g transform="translate(1079.6665344238281 112) rotate(0 57.000030517578125 0.33331298828125)"><path d="M85.75 10.76 C93.46 8.01, 101.16 5.25, 114 0.67 M85.75 10.76 C93.41 8.02, 101.07 5.29, 114 0.67" stroke="#2f9e44" stroke-width="2" fill="none"></path></g><g transform="translate(1079.6665344238281 112) rotate(0 57.000030517578125 0.33331298828125)"><path d="M85.87 -9.76 C93.54 -6.91, 101.22 -4.07, 114 0.67 M85.87 -9.76 C93.5 -6.93, 101.13 -4.1, 114 0.67" stroke="#2f9e44" stroke-width="2" fill="none"></path></g></g><mask></mask><g stroke-linecap="round" transform="translate(1501 154.66659545898438) rotate(0 117.333251953125 34.33331298828125)"><path d="M17.17 0 C78.11 0, 139.05 0, 217.5 0 M17.17 0 C70.46 0, 123.75 0, 217.5 0 M217.5 0 C228.94 0, 234.67 5.72, 234.67 17.17 M217.5 0 C228.94 0, 234.67 5.72, 234.67 17.17 M234.67 17.17 C234.67 27.2, 234.67 37.24, 234.67 51.5 M234.67 17.17 C234.67 26.59, 234.67 36.01, 234.67 51.5 M234.67 51.5 C234.67 62.94, 228.94 68.67, 217.5 68.67 M234.67 51.5 C234.67 62.94, 228.94 68.67, 217.5 68.67 M217.5 68.67 C147.83 68.67, 78.17 68.67, 17.17 68.67 M217.5 68.67 C169.57 68.67, 121.65 68.67, 17.17 68.67 M17.17 68.67 C5.72 68.67, 0 62.94, 0 51.5 M17.17 68.67 C5.72 68.67, 0 62.94, 0 51.5 M0 51.5 C0 39.41, 0 27.31, 0 17.17 M0 51.5 C0 41.17, 0 30.84, 0 17.17 M0 17.17 C0 5.72, 5.72 0, 17.17 0 M0 17.17 C0 5.72, 5.72 0, 17.17 0" stroke="#343a40" stroke-width="2" fill="none"></path></g><g transform="translate(1591.160011291504 178.333251953125) rotate(0 19.29998016357422 13)"><text x="19.29998016357422" y="0" font-family="Virgil, Segoe UI Emoji" font-size="20px" fill="#343a40" text-anchor="middle" style="white-space: pre;" direction="ltr" dominant-baseline="text-before-edge">RRF</text></g><g stroke-linecap="round"><g transform="translate(1367 311.66668701171875) rotate(0 67.66668701171875 -42.333343505859375)"><path d="M0 0 C22.56 -14.11, 112.78 -70.56, 135.33 -84.67 M0 0 C22.56 -14.11, 112.78 -70.56, 135.33 -84.67" stroke="#000000" stroke-width="2" fill="none"></path></g><g transform="translate(1367 311.66668701171875) rotate(0 67.66668701171875 -42.333343505859375)"><path d="M116.88 -61.02 C122.2 -67.83, 127.52 -74.65, 135.33 -84.67 M116.88 -61.02 C120.86 -66.13, 124.85 -71.24, 135.33 -84.67" stroke="#000000" stroke-width="2" fill="none"></path></g><g transform="translate(1367 311.66668701171875) rotate(0 67.66668701171875 -42.333343505859375)"><path d="M105.99 -78.41 C114.45 -80.22, 122.91 -82.02, 135.33 -84.67 M105.99 -78.41 C112.33 -79.76, 118.67 -81.12, 135.33 -84.67" stroke="#000000" stroke-width="2" fill="none"></path></g></g><mask></mask><g stroke-linecap="round"><g transform="translate(1437.6666259765625 119.66665649414062) rotate(0 32 17)"><path d="M0 0 C10.67 5.67, 53.33 28.33, 64 34 M0 0 C10.67 5.67, 53.33 28.33, 64 34" stroke="#2f9e44" stroke-width="2" fill="none"></path></g><g transform="translate(1437.6666259765625 119.66665649414062) rotate(0 32 17)"><path d="M34.29 29.84 C44.67 31.29, 55.04 32.74, 64 34 M34.29 29.84 C46.13 31.5, 57.97 33.15, 64 34" stroke="#2f9e44" stroke-width="2" fill="none"></path></g><g transform="translate(1437.6666259765625 119.66665649414062) rotate(0 32 17)"><path d="M43.92 11.71 C50.93 19.5, 57.95 27.28, 64 34 M43.92 11.71 C51.92 20.59, 59.92 29.48, 64 34" stroke="#2f9e44" stroke-width="2" fill="none"></path></g></g><mask></mask><g stroke-linecap="round" transform="translate(1511.7355651855469 369.35135650634766) rotate(0 117.09774780273438 6.5435028076171875)"><path d="M3.27 0 C49.49 -1.23, 97.74 -1.41, 230.92 0 M3.27 0 C74.27 -0.89, 144.29 -0.99, 230.92 0 M230.92 0 C233.41 -0.36, 234.26 0.16, 234.2 3.27 M230.92 0 C232.14 0.75, 234 1.51, 234.2 3.27 M234.2 3.27 C234.49 4.34, 234.26 6.08, 234.2 9.82 M234.2 3.27 C234.31 4.54, 234.32 6.09, 234.2 9.82 M234.2 9.82 C233.66 11.52, 233.77 12.74, 230.92 13.09 M234.2 9.82 C233.71 12.53, 232.75 12.59, 230.92 13.09 M230.92 13.09 C175.15 11.6, 117.5 12.08, 3.27 13.09 M230.92 13.09 C178.69 12.89, 125.73 13.12, 3.27 13.09 M3.27 13.09 C2.04 12.1, -0.64 12.19, 0 9.82 M3.27 13.09 C0.28 14, 0.25 11.2, 0 9.82 M0 9.82 C0.12 7.51, -0.03 4.82, 0 3.27 M0 9.82 C0.09 8.07, -0.11 6.07, 0 3.27 M0 3.27 C-0.1 0.92, 1.21 -0.51, 3.27 0 M0 3.27 C-0.78 0.24, 0.77 -0.25, 3.27 0" stroke="#000000" stroke-width="1" fill="none"></path></g><g stroke-linecap="round" transform="translate(1512.0686950683594 392.35140228271484) rotate(0 117.09774780273438 6.5435028076171875)"><path d="M3.27 0 C88.98 -0.1, 173.85 0.38, 230.92 0 M3.27 0 C84.87 0.29, 166.92 0.56, 230.92 0 M230.92 0 C233.17 -0.93, 233.36 1.74, 234.2 3.27 M230.92 0 C232.91 0.42, 233.11 1.21, 234.2 3.27 M234.2 3.27 C234.29 4.87, 233.91 6.32, 234.2 9.82 M234.2 3.27 C234.34 5.02, 234.13 6.41, 234.2 9.82 M234.2 9.82 C234.86 11.65, 232.68 13.55, 230.92 13.09 M234.2 9.82 C233.84 11.5, 232.5 13.36, 230.92 13.09 M230.92 13.09 C182.1 12.23, 134.23 12.95, 3.27 13.09 M230.92 13.09 C170.41 13.82, 111.11 13.02, 3.27 13.09 M3.27 13.09 C0.45 13.28, -0.71 12.79, 0 9.82 M3.27 13.09 C1.34 12.29, 0.96 11.58, 0 9.82 M0 9.82 C-0.05 7.98, -0.08 5.88, 0 3.27 M0 9.82 C-0.15 7.68, -0.03 5.66, 0 3.27 M0 3.27 C0.12 0.58, 0.41 -0.74, 3.27 0 M0 3.27 C-0.33 0.84, -0.05 0.97, 3.27 0" stroke="#000000" stroke-width="1" fill="none"></path></g><g transform="translate(1523.1663208007812 329.2282180786133) rotate(0 109.07987976074219 12.5)"><text x="0" y="0" font-family="Virgil, Segoe UI Emoji" font-size="20px" fill="#1e1e1e" text-anchor="start" style="white-space: pre;" direction="ltr" dominant-baseline="text-before-edge">Top k relevant chunks</text></g><g stroke-linecap="round" transform="translate(1512.5687561035156 413.4564971923828) rotate(0 117.09774780273438 6.5435028076171875)"><path d="M3.27 0 C83.76 0.13, 163.73 -0.26, 230.92 0 M3.27 0 C72.92 0.09, 142.9 -0.51, 230.92 0 M230.92 0 C234.07 -0.55, 233.57 2.05, 234.2 3.27 M230.92 0 C233.45 -1.12, 234.45 1.98, 234.2 3.27 M234.2 3.27 C234.24 5.32, 234.41 7.51, 234.2 9.82 M234.2 3.27 C234.15 5.12, 234.12 7.17, 234.2 9.82 M234.2 9.82 C234.54 11.49, 232.65 13.1, 230.92 13.09 M234.2 9.82 C234.52 10.96, 234.16 12.06, 230.92 13.09 M230.92 13.09 C159.26 12.8, 85.45 13.12, 3.27 13.09 M230.92 13.09 C172.5 13.27, 114.51 12.89, 3.27 13.09 M3.27 13.09 C1.77 13.63, 0.19 11.73, 0 9.82 M3.27 13.09 C0.19 14.13, -0.86 12.49, 0 9.82 M0 9.82 C0.26 7.87, -0.18 6.15, 0 3.27 M0 9.82 C-0.08 8, -0.01 6.49, 0 3.27 M0 3.27 C-0.25 1.47, 1.5 0.71, 3.27 0 M0 3.27 C-0.83 1.21, 1.36 -0.38, 3.27 0" stroke="#000000" stroke-width="1" fill="none"></path></g><g stroke-linecap="round"><g transform="translate(1625 231.6666259765625) rotate(0 0.66668701171875 43.000030517578125)"><path d="M0 0 C0.22 14.33, 1.11 71.67, 1.33 86 M0 0 C0.22 14.33, 1.11 71.67, 1.33 86" stroke="#000000" stroke-width="2" fill="none"></path></g><g transform="translate(1625 231.6666259765625) rotate(0 0.66668701171875 43.000030517578125)"><path d="M-9.36 57.97 C-5.42 68.3, -1.48 78.63, 1.33 86 M-9.36 57.97 C-5.13 69.06, -0.9 80.15, 1.33 86" stroke="#000000" stroke-width="2" fill="none"></path></g><g transform="translate(1625 231.6666259765625) rotate(0 0.66668701171875 43.000030517578125)"><path d="M11.16 57.65 C7.54 68.1, 3.92 78.55, 1.33 86 M11.16 57.65 C7.27 68.87, 3.38 80.09, 1.33 86" stroke="#000000" stroke-width="2" fill="none"></path></g></g><mask></mask><g stroke-linecap="round"><g transform="translate(1501 396) rotate(0 -95.33331298828125 141.33334350585938)"><path d="M0 0 C-74.25 0.52, -148.5 1.05, -189.33 1.33 M0 0 C-71.28 0.5, -142.56 1, -189.33 1.33 M-189.33 1.33 C-189.74 86.23, -190.14 171.13, -190.67 282.67 M-189.33 1.33 C-189.78 95.76, -190.23 190.18, -190.67 282.67 M-190.67 282.67 C-166.09 282.67, -141.5 282.67, -70.67 282.67 M-190.67 282.67 C-152.63 282.67, -114.59 282.67, -70.67 282.67" stroke="#000000" stroke-width="2" fill="none"></path></g><g transform="translate(1501 396) rotate(0 -95.33331298828125 141.33334350585938)"><path d="M-98.86 292.93 C-87.8 288.9, -76.75 284.88, -70.67 282.67 M-98.86 292.93 C-88.24 289.06, -77.63 285.2, -70.67 282.67" stroke="#000000" stroke-width="2" fill="none"></path></g><g transform="translate(1501 396) rotate(0 -95.33331298828125 141.33334350585938)"><path d="M-98.86 272.41 C-87.8 276.43, -76.75 280.45, -70.67 282.67 M-98.86 272.41 C-88.24 276.27, -77.63 280.13, -70.67 282.67" stroke="#000000" stroke-width="2" fill="none"></path></g></g><mask></mask></svg>